<?xml version="1.0" encoding="utf-8"?>
<!-- Generator: Adobe Illustrator 15.0.2, SVG Export Plug-In . SVG Version: 6.00 Build 0)  -->
<!DOCTYPE svg PUBLIC "-//W3C//DTD SVG 1.1//EN" "http://www.w3.org/Graphics/SVG/1.1/DTD/svg11.dtd">
<svg version="1.1" id="White" xmlns="http://www.w3.org/2000/svg" xmlns:xlink="http://www.w3.org/1999/xlink" x="0px" y="0px"
	 width="395px" height="227px" viewBox="-195.302 -73.563 395 227" enable-background="new -195.302 -73.563 395 227"
	 xml:space="preserve">
<g id="Random_House">
	<path fill="#FFFFFF" d="M-28.818,44.678h2.404c0,0,0.641-0.161,0.641,0.479v4.488c0,0,0.16,0.641-0.482,0.802h-2.725
		c0,0-0.641,0-0.641-0.641v-4.488C-29.618,45.318-29.779,44.837-28.818,44.678L-28.818,44.678z M-28.657,47.402h0.801V45.96h-0.801
		V47.402L-28.657,47.402z M-27.054,47.562h0.801V45.96h-0.801V47.562L-27.054,47.562z M-27.054,49.646h0.641v-1.443h-0.641V49.646
		L-27.054,49.646z M-28.657,49.646h0.801v-1.603h-0.801V49.646L-28.657,49.646z"/>
	<path fill="#FFFFFF" d="M-40.518,56.058c0,0-0.482-2.404,2.243-2.404c0,0,0.321-1.442,1.764-1.442l-0.16,0.479
		c0,0-1.282,0.963-1.122,1.925c0,0-1.764-0.48-2.404,1.442H-40.518L-40.518,56.058z"/>
	<path fill="#FFFFFF" d="M-38.755,56.058c0,0,0-1.923,2.245-0.963v0.161c0,0-1.604-0.161-1.923,0.802H-38.755L-38.755,56.058z"/>
	<path fill="#FFFFFF" d="M-41,56.217c0,0,10.9-0.159,38.63-0.159c0,0,0.32,0.642,0,0.642l-38.951,0.159
		C-41.32,56.86-41.64,56.54-41,56.217L-41,56.217z"/>
	<path fill="#FFFFFF" d="M-33.305,57.98c12.182,0,23.562-0.159,34.942,0c0.16,0,0.32,0.32,0.32,0.32
		C-8.781,58.46-19.521,58.78-30.1,58.46c-4.808-0.159-12.343,0.481-11.541-0.48C-38.916,57.98-36.03,57.98-33.305,57.98
		L-33.305,57.98z"/>
	<path fill="#FFFFFF" d="M11.734,57.98c4.49,0,8.978,0,13.626,0.159c0.161,0,0,0.32,0,0.32c-7.213,0.16-12.823,0.16-19.394,0
		c0,0-0.482-0.48,0-0.48C7.888,58.142,9.812,57.98,11.734,57.98L11.734,57.98z"/>
	<path fill="#FFFFFF" d="M36.42,58.302c1.442,0,2.884,0,4.485,0.16c0.162,0,0.803-0.16,0.964,0.48
		c0.642-0.48,2.404-0.48,3.526-0.641c0.48-0.16,0.162,0.641-0.319,0.963c-0.321,0-0.482-0.322-0.642-0.322
		c-1.764,0-3.529,0.161-5.29,0c-3.526-0.32-5.931,0.322-10.739-0.48c-0.321-0.481,1.123-0.32,1.442-0.32
		C31.931,58.142,34.336,58.302,36.42,58.302L36.42,58.302z"/>
	<path fill="#FFFFFF" d="M-31.543,60.546c-0.481,0-1.122,0.16-1.763,0c-1.123-0.32-0.32-0.641-0.161-0.641
		c0.963,0,20.838-0.16,31.738,0.16c2.565,0,5.129,0,7.695,0c0.319,0,0.961,0,1.281,0c8.175-0.16,16.19-0.32,24.365,0.16
		c3.847,0.32,7.693,0.32,11.542,0.32c0.159,0,0.319,0.32,0.159,0.32C43.311,60.866-31.383,60.546-31.543,60.546L-31.543,60.546z"/>
	<path fill="#FFFFFF" d="M-36.35,56.217l0.159-10.739h-0.961c0,0-0.32-0.32,0.16-0.641l6.892-8.976c0,0,0.16-0.159,0.481-0.642
		v-3.206c0,0,0.16-0.48,0.319-0.48c0.32,0,0.641,0,0.641,0s0.321-0.16,0.321-0.32c0-0.161,0-1.123,0-1.123s1.763-1.442,3.365,0.642
		v0.802l0.16,3.365c0,0,0,0.642,0.321,0.963c0.161,0.16,6.251,8.976,6.251,8.976h-1.122l-5.931-8.655c0,0-0.32-0.159-0.16-0.962
		c0-0.802,0-2.243,0-2.243s0-0.481-0.482-0.481c-0.641,0-2.403,0-2.403,0s-0.642-0.161-0.642,0.802c0,0.962,0,1.762,0,1.762
		s0,1.123-0.479,1.604c-0.481,0.32-5.931,7.854-5.931,7.854l-0.16,11.701L-36.35,56.217L-36.35,56.217z M-26.254,31.533l0.161-0.32
		l-0.32-0.481h-0.802c-0.159,0-0.802,0.481-0.321,0.641c0.321,0.32,0.321,0.32,0.321,0.32L-26.254,31.533L-26.254,31.533z"/>
	<path fill="#FFFFFF" d="M-24.971,31.533l1.443,0.48c0,0,0.16,0.16,0.16,0.481c0,0.159,0,1.282,0,1.282s0,0.32,0.481,0.481
		c0.32,0.159,3.206,0.32,3.206,0.32l9.296,10.739c0,0,0,0.479-0.32,0.642c-0.32,0.159-8.174,0-8.174,0s-0.481-0.161-0.481,0.32
		c0.16,0.32-0.321,9.457,0,9.777h-0.963c0,0,0.32-6.412,0.161-10.739c0,0,0.159-0.481,0.802-0.481c0.802,0,7.053,0,7.053,0
		s0.32-0.159,0-0.32c-0.32-0.159-7.212-8.655-7.212-8.655s-0.16-0.32-0.641-0.482c-0.32,0-3.206-0.32-3.206-0.32
		s-0.642,0-0.802-0.641c0-0.641,0-1.121,0-1.121s0-0.643-0.802-0.48V31.533L-24.971,31.533z"/>
	<path fill="#FFFFFF" d="M-18.88,56.058l0.16-8.335c0,0,0.16-0.641,0.641,0l-0.16,8.494L-18.88,56.058L-18.88,56.058z"/>
	<path fill="#FFFFFF" d="M-17.597,56.217l0.16-8.494c0,0,0.161-0.481,0.641,0v8.494H-17.597L-17.597,56.217z"/>
	<path fill="#FFFFFF" d="M-15.353,56.058h-0.642l0.16-8.335c0,0,0.321-0.32,0.482,0V56.058L-15.353,56.058z"/>
	<path fill="#FFFFFF" d="M-14.552,56.058v-8.335c0,0,0.482-0.481,0.641,0v8.013c0,0,0,0.161,0.161,0.32h-0.802V56.058z"/>
	<path fill="#FFFFFF" d="M-12.307,56.058h-0.963c0,0,0.161-0.16,0.161-0.641l0.16-7.694c0,0,0.16-0.481,0.481,0L-12.307,56.058
		L-12.307,56.058z"/>
	<path fill="#FFFFFF" d="M-10.545,56.058h-1.123c0,0,0,0,0.16-0.481v-7.213c0,0,0-0.32-0.16-0.32c-0.16,0-0.48-1.283-0.32-0.802
		c0,0,0.161-1.443-0.32-1.283l1.282-0.16l-0.159,1.443c0,0,0,0.481,0.481,0.641v7.533C-10.705,55.417-10.865,55.896-10.545,56.058
		L-10.545,56.058L-10.545,56.058z"/>
	<path fill="#FFFFFF" d="M-9.423,56.058h-0.641l0.16-8.335c0,0,0.32-0.481,0.48,0C-9.103,48.043-9.423,56.058-9.423,56.058
		L-9.423,56.058z"/>
	<path fill="#FFFFFF" d="M-7.821,56.058h-0.802l0.16-8.335c0,0,0.481-0.481,0.641,0c0,0-0.16,8.174,0,8.494v-0.159H-7.821z"/>
	<path fill="#FFFFFF" d="M-13.109,39.547v-3.525c0,0-0.161-0.481,0.16-0.481c0.481,0,1.603,0,1.603,0s0.641,0,0.48,0.481v3.686
		c0,0,0.161,0.32-0.32,0.32h-1.602C-12.788,40.028-13.27,40.028-13.109,39.547L-13.109,39.547z M-11.507,37.143l-0.159-0.159
		c0,0-0.321,0.159-0.48,0.159c-0.16-0.159-0.16,0-0.16,0v1.604v0.16c0,0,0.481,0.16,0.641,0c0.16,0,0.16-0.16,0.16-0.16
		S-11.507,37.304-11.507,37.143L-11.507,37.143z"/>
	<path fill="#FFFFFF" d="M1.476,37.944c0,0,0.161-0.641,0.802-0.32c0.48,0.32,3.688,1.923,3.688,1.923s0.319,0.16,0.319,0.32
		c0.16,0.161,0,2.084,0,2.084s0,0.32-0.319,0.32c-0.162,0-3.688-0.32-3.688-0.32s-0.641,0-0.641-0.479L1.476,37.944L1.476,37.944z
		 M2.439,40.831c0,0.159,0.159,0.159,0.159,0.159l2.725,0.641c0.321,0,0.321-0.48,0.321-0.48s-0.161-0.643-0.161-0.803l-0.161-0.16
		c0,0-2.244-1.121-2.565-1.281c-0.32-0.16-0.32,0.16-0.32,0.16v1.765H2.439z"/>
	<path fill="#FFFFFF" d="M2.759,40.99v-0.962c0,0-0.16-0.32,0.32-0.481H3.72v0.481c0,0-0.8-0.32-0.641,1.123L2.759,40.99
		L2.759,40.99z"/>
	<path fill="#FFFFFF" d="M3.882,39.388v1.764h0.481v-0.479c0,0,0.16-0.322,0.32,0v0.479l0.481,0.161v-0.964
		c0,0-0.321-0.481-0.801-0.32v-0.32L3.882,39.388L3.882,39.388z"/>
	<path fill="#FFFFFF" d="M-0.607,35.702V29.93c0,0,0-0.641,0.481-0.641h3.688c0,0,0.479,0,0.479,0.641v6.093
		c0,0,0,0.481-0.479,0.481h-3.689C-0.127,36.502-0.767,36.342-0.607,35.702L-0.607,35.702z M0.516,31.693c0,0,0.641,0,0.802,0
		c0.321,0,0.321-0.16,0.321-0.16s0-0.48,0-0.642c0-0.159-0.161-0.159-0.161-0.159H0.677L0.516,31.693L0.516,31.693z M0.676,33.777
		c0,0,0.32,0,0.641,0c0.321-0.159,0.321-0.32,0.321-0.32s0-0.641,0-0.803c-0.161-0.159-0.321-0.159-0.321-0.159H0.676V33.777
		L0.676,33.777z M0.676,35.702h0.641l0.16-0.161c0,0,0-0.642,0-0.801c0-0.161-0.16-0.161-0.16-0.161s-0.481,0-0.641,0
		c-0.16-0.16-0.16,0.161-0.16,0.161L0.676,35.702L0.676,35.702z M2.439,31.533c0.159,0.32,0.641,0.16,0.481,0.16
		c0.322,0,0.322,0,0.322,0c0-0.16,0.159-0.641,0-0.962c-0.162-0.16-0.322,0-0.644,0c-0.159-0.16-0.159,0.159-0.159,0.159
		S2.278,31.213,2.439,31.533L2.439,31.533z M2.439,33.617h0.803c0.159-0.32,0-1.123,0-1.123s-0.482,0-0.644,0
		c-0.161,0-0.159,0.159-0.159,0.159V33.617L2.439,33.617z M2.439,35.702H2.92c0.322,0,0.322-0.161,0.322-0.32
		c0-0.482,0-0.642,0-0.642c0-0.161-0.162-0.161-0.162-0.161H2.439V35.702L2.439,35.702z"/>
	<path fill="#FFFFFF" d="M4.202,45.478c0,0-0.482,1.282-0.482,1.764v6.412c0,0-0.16,0.802,0.803,0.642h3.366l0.161,0.8
		c0,0,0-0.159-0.803,0h-9.136c0,0-0.641,0-0.802,0.32c-0.159,0.802,0.161-1.441,0.161-1.441s0.48,0.16,1.283,0.32h3.045
		c0,0,0.16,0,0.16-0.964v-5.931c0,0-0.16-1.923,1.764-3.045c2.084-1.282,4.006-0.159,4.167,0.481v1.122
		C7.888,45.96,6.445,43.556,4.202,45.478L4.202,45.478L4.202,45.478z M2.598,47.562v5.129c0.16,0.641,0,1.122,0,1.122
		s0.16,0.161,0.481,0c0.321-0.32,0.162-1.122,0.162-1.122v-5.449c0-0.32,0.159-1.283,0.159-1.283
		C2.598,45.639,2.598,47.562,2.598,47.562L2.598,47.562z"/>
	<path fill="#FFFFFF" d="M5.644,47.402h0.962c0,0,0.32-0.16,0.32,0.159v0.641c0,0-0.16,0.32-0.32,0.32H5.644c0,0-0.321,0-0.321-0.32
		v-0.641C5.323,47.562,5.484,47.402,5.644,47.402L5.644,47.402z"/>
	<path fill="#FFFFFF" d="M10.292,41.631c0.642,0.32,0.801,0.641,0.801,0.641h0.481c0,0,0.642,0,0.803,0.48
		c0.159,0.32,0.32,0.48,0.32,0.48s0,0.322-0.161,0.481c-0.32,0.159,0,11.701,0,11.701s-0.159,0.32,0.161,0.481
		c0.801,0.32,17.791,0.159,17.791,0.159v0.803H8.369c0,0-0.642-0.159-0.481-0.482V43.395c0,0,0-0.321-0.161-0.642
		c-0.16-0.32-0.481-0.32,0-0.641l0.801,0.161c0,0,0.481-0.161,0.803-0.481c0.321-0.641,0.161,0,0-0.641
		c0-0.479-0.322-0.32-0.16-1.923c0,0-1.603-0.641-0.321-0.962h1.924c0,0,1.282,0.16,0.16,0.802c-1.123,0.641-0.482-0.48-0.322,0.16
		c0,0.32-0.161,1.282-0.32,2.084C10.292,41.313,10.132,41.631,10.292,41.631L10.292,41.631z M11.094,53.172h-0.642
		c-1.123,0.159-0.641-0.961-0.641-0.961h1.123c0.319,0,0.319-0.16,0.319-0.16v-1.764c-0.16-0.48-0.48-0.48-0.48-0.48h-0.642
		c-0.48,0-0.32-0.802-0.32-0.802h1.123c0.319,0,0.159-0.159,0.159-0.159v-2.404c0.16-0.161-0.159-0.161-0.159-0.161H9.972
		c-0.481-0.642,0-0.962,0-0.962s0.801,0,0.962,0c0.319-0.161,0.319-0.481,0.319-0.481s0-0.962,0-1.282
		c-0.16-0.322-0.319-0.322-0.319-0.322s-1.763,0-2.084,0c-0.322,0-0.16,0.643-0.16,0.643s-0.162,11.06-0.162,11.54
		c0,0.481,0.481,0.481,0.481,0.481h2.084V53.172L11.094,53.172z"/>
	<path fill="#FFFFFF" d="M-2.531,56.217l-4.648-0.159l0.16-12.502c0,0,0-0.481-0.32-0.481c-0.16,0-1.123-1.282,0.32-1.121
		l0.641,0.159c0,0,0.16-0.641,0.641-0.641c0,0,0.16-0.32-0.159-0.641c0,0-0.161-1.443-0.161-1.603c0.161,0-0.48-0.32-0.641-0.481
		c-0.161,0-0.32-0.641,0.16-0.641c0.48-0.162,2.404,0,2.404,0s1.122,0.32-0.16,0.961c0,0-0.32,0-0.32,0.32
		c0.16,0.32,0,1.443-0.16,1.443c-0.16,0.159-0.16,0.32,0,0.481c0.32,0.159,0.481,0.479,0.481,0.641
		c0.16,0.32,0.962,0.159,0.962,0.159s0.16,0,0.32,0c0.32,0.481,0.802,0.802,0.802,0.802s0.32,0.32-0.16,0.642h-0.16
		c0,0-0.161,0,0,0.159v12.502H-2.531L-2.531,56.217z M-3.813,56.058c0,0,0-1.923,0-2.404c0-0.641,0-0.32-0.802-0.481
		c-0.641,0-0.481-0.159-0.481-0.159v-0.642c0,0,1.123,0.161,1.283,0c0-0.159,0.161-0.32,0.161-0.32s-0.161-1.443,0-1.764
		c0-0.48-0.481-0.48-1.122-0.48c-0.642,0-0.321-0.641-0.321-0.641s1.123,0,1.284-0.16c0.161,0,0.161-0.32,0.161-0.32l-0.161-2.564
		l-1.123-0.16v-0.642c0,0,0.801,0,0.961,0c0.321,0,0.321-0.641,0.321-0.641v-1.282c0,0-1.924,0-2.084-0.16
		c-0.32,0-0.32,0.48-0.32,0.48l-0.16,12.342L-3.813,56.058L-3.813,56.058z"/>
	<path fill="#FFFFFF" d="M-9.423,19.03h2.886c0,0,0.321,0,0.321,0.32v4.648c0,0,0,0.16-0.16,0.16h-3.366c0,0-0.16,0-0.16-0.32
		v-4.488C-9.903,19.351-9.743,19.03-9.423,19.03L-9.423,19.03z M-9.103,21.274c0,0,0.642,0.16,0.802,0
		c0.16-0.159,0.16-0.32,0.16-0.32s0-0.479,0-0.641c0-0.159-0.16-0.32-0.16-0.32l-0.802,0.16V21.274L-9.103,21.274z M-7.498,21.274
		h0.641l0.161-0.801l-0.32-0.32h-0.48L-7.498,21.274L-7.498,21.274z M-8.941,23.198h0.801c0,0,0-0.481,0-0.641
		c-0.16-0.16-0.32-0.322-0.32-0.322h-0.48L-8.941,23.198L-8.941,23.198z M-7.659,22.235l0.16,0.963l0.48,0.159l0.16-0.32
		c0-0.159,0-0.803,0-0.803L-7.659,22.235L-7.659,22.235z"/>
	<path fill="#FFFFFF" d="M0.516,19.351c0,0-0.161-0.32,0.48-0.32h2.886c0,0,0.641-0.16,0.801,0.642v3.526c0,0-0.161,0.32-0.481,0.48
		H0.996c0,0-0.641,0-0.48-0.641V19.351L0.516,19.351z M1.476,22.235c0.321,0.963,0.963,0.161,0.963,0.161v-2.083
		c-0.802-0.641-0.963,0-0.963,0V22.235L1.476,22.235z M2.92,22.397c0.481,0.802,0.962,0,0.962,0v-2.084
		c-0.641-0.641-0.962,0-0.962,0V22.397L2.92,22.397z"/>
	<path fill="#FFFFFF" d="M-19.681,34.74l4.006-4.811l0.162-0.479l0.32-12.182c0,0,0.16-0.159-0.16-0.321c-0.16,0,1.123,0,1.123,0
		s-0.162,0.161-0.162,0.321c0,0.161-0.159,12.021-0.159,12.021s0.159,0.803-0.16,1.123l-4.007,4.487c0,0-0.32,0.642-0.159,0.964
		C-18.719,36.182-19.681,34.74-19.681,34.74L-19.681,34.74z"/>
	<path fill="#FFFFFF" d="M-16.956,16.946c0,0-1.122,0-0.32-1.122c0,0,14.746-10.419,14.907-10.419c0.32,0,4.648-3.687,5.128-4.006
		c0.482-0.16,0.482-0.481,0.801-0.803v-2.244c0,0,0-0.801,0.322-0.641h1.122v2.565c0,0,0.161,0.802,0.643,1.123
		c0.479,0.16,8.655,8.976,8.976,8.976c0.16,0,0.32,0.641,0.641,0l0.161-0.961c0,0,0-0.962,0.481-0.803c0.481,0,0.962,0,0.962,0
		s-0.16-0.641,0.481-0.641c0,0,0-0.32,0.481-0.32V7.169c0,0,0-0.32,0.32-0.32h1.602c0,0,0.322,0,0.322,0.32v2.886
		c0,0,0,0.16,0.161,0.48l0.481,0.641l0.161,4.489c0,0,0,0.641,0.322,0.801l3.044,2.885c0,0,0.641,0.803-0.16,0.962h-0.642
		c0,0-0.32,0-0.32,0.481c0,0.48,0.32,14.585,0.32,14.585h-0.962l-0.32-16.028l-0.962-0.641c0,0-0.481-0.32-0.481,0.159
		s0,3.848,0,3.848s-0.161,0.161,0.161,0.32c0.32,0.32,0.801,0.159,0.801,0.481c0,0.479,0,0.641-0.481,0.641
		c-0.481,0.159-1.283-0.48-1.123-0.802l-0.16-11.862c0,0,0-0.641-0.161-0.641l-0.322-0.481V7.169h-1.122c0,0,0.322,0.482,0.16,0.482
		c0,0,0.481,0.16,0.321,0.481l0.16,9.297c0,0,0,0.479-0.481,0.159c0,0-0.48-0.803-2.884-0.803L-16.956,16.946L-16.956,16.946z
		 M15.421,15.985c1.122,0.159,0.161-0.802,0.161-0.802C14.3,13.74,4.682,2.52,4.682,2.52C4.201,1.878,3.56,2.84,3.56,2.84
		C3.398,3.16-14.873,15.343-14.873,15.343c-0.963,0.802,0.159,0.641,0.159,0.641C-6.537,15.504,15.421,15.985,15.421,15.985
		L15.421,15.985z M16.224,13.741c0,0.642,0.16,0.32,0.16,0.481c0,0.321,1.442,1.603,1.442,1.603c0.481,0.32,0.32-0.159,0.32-0.159
		v-5.13c0-0.32-0.481-0.801-0.481-0.801s-0.32,0.161-0.962,0c-0.641,0-0.481,0.481-0.481,0.481v3.526H16.224z"/>
	<path fill="#FFFFFF" d="M17.666,16.946c0,0-0.48,0-0.48,0.321l0.48,25.646c-0.16,2.243,0.642,2.084,0.642,2.084H30.81v1.282H17.987
		c-0.962,0.32-0.962-0.642-0.962-0.642c0.16-0.961-0.641-25.806-0.481-26.288c0-0.641-0.322-0.641-0.322-0.641H15.74
		c-0.641,0-0.481,0.641-0.481,0.641L15.42,47.4c-0.481,0.962-0.961,0-0.961,0c0.159-0.159,0-29.172,0-29.172
		c-0.162-0.641,0.479-0.481,0.479-0.481h0.962c0.642,0,0.642-1.123,0.642-1.123L17.666,16.946L17.666,16.946L17.666,16.946z"/>
	<path fill="#FFFFFF" d="M17.507,16.946C17.507,16.946,17.666,16.946,17.507,16.946L17.507,16.946L17.507,16.946z"/>
	<path fill="#FFFFFF" d="M12.217,16.626h0.962v2.404h0.48c0,0,0.481,0,0.481,0.642c-0.16,0.641,0,27.89,0,27.89
		s-0.319,0.32,0.162,0.32l0.16,7.533c0,0-0.16,0.641,0.32,0.802H13.34c0,0,0.481-0.641,0.481-1.122v-6.893
		c0,0-0.481-0.32-0.481-0.802c0,0,0-26.286,0-27.088c0,0-0.16-0.642-0.481-0.32c0,0-0.48-0.159-0.48-0.642
		C12.378,19.351,12.537,16.786,12.217,16.626L12.217,16.626z"/>
	<path fill="#FFFFFF" d="M41.389,57.02c0,0-9.618,0-11.062-0.159l-0.159-12.022H17.988l-0.481-1.123c0,0,0.32-0.159,0.481-0.48
		c0,0,4.326-7.855,4.486-7.855h6.893c0,0,0.162,0,0.321-0.32v-1.762c0,0,0-0.48,0.322-0.48c0.479,0.16,3.846,0,3.846,0
		s1.441-0.162,1.441,1.122v2.886c0,0,0.162,1.764,0.321,1.764c0.322,0,4.008,7.211,4.008,7.211s0.801,0.481-0.161,0.643h-0.802
		v9.937c0,0,0,0.162,0.32,0.321h2.244c0,0,0.642,0,0,0.32H41.389L41.389,57.02z M29.046,44.837c0.642,0.159,0.802-0.32,0.802-0.32
		c-0.16-0.32,2.405-4.488,2.405-4.488c0.16-0.161,0.319-0.641,0.319-0.641v-5.129c0-0.481-0.479-0.481-0.479-0.481
		s-0.804,0.16-1.284,0c-0.321,0-0.321,0.481-0.321,0.481v4.007l-0.16,0.641c-1.283,1.122-1.764-0.16-1.764-0.16
		c-0.159-0.32,0.481-0.32,0.481-0.32c0.482,0,0.642-0.32,0.642-0.32l-0.159-1.604c0-0.16-0.162-0.16-0.162-0.16h-6.09
		c-0.642,0-0.642,0.32-0.642,0.32l-4.327,7.693c-0.481,0.802,0,0.641,0,0.641L29.046,44.837L29.046,44.837z M37.221,56.378
		c0.48-0.16,0.48-0.32,0.48-0.32V45.479c0.963,0.16,0.322-0.801,0.322-0.801c-0.162,0-2.887-5.61-2.887-5.61
		c-0.481-0.159-0.481-1.123-0.481-1.123l-0.159-3.365c-0.161-0.961-0.963-0.641-0.963-0.641v5.13c-0.16,0.641-0.48,1.122-0.48,1.122
		l-1.924,4.007c-0.16,0-0.16,0.481-0.16,0.481v10.898c-0.16,0.641,0.801,0.641,0.801,0.641
		C33.854,55.896,37.221,56.378,37.221,56.378L37.221,56.378z"/>
	<path fill="#FFFFFF" d="M40.105,52.05c0,0,0.964,0.641,0.803,1.441c0,0,0.802,0.16,0.962,1.283c0,0,0,0.481-0.48,0.16
		c0,0-0.641-0.801-1.604-0.32c0,0-0.801,0.32-0.32-0.32l0.643-0.482c0,0,0.159-1.281-1.283-1.442
		C38.825,52.37,38.825,51.57,40.105,52.05L40.105,52.05z"/>
	<path fill="#FFFFFF" d="M39.626,55.896c0,0,1.123-1.602,1.923,0l0.641-0.161c0,0,0.481-0.641,1.122-0.159
		c0,0,0.803,0.802,0.963,1.443l-0.48,0.479c0,0-0.643-0.641-0.961-1.282c0,0-0.964-0.159-1.125,0.159l-0.32-0.479H39.626
		L39.626,55.896z"/>
	<path fill="#FFFFFF" d="M44.594,55.737c0,0,1.123-0.32,1.442,1.123C46.036,56.86,45.395,56.86,44.594,55.737L44.594,55.737z"/>
	<path fill="#FFFFFF" d="M14.941,56.058c0,0,0.32-0.16,0.32-0.641v-7.214c0,0,0.322-0.479,0.642,0v7.214c0,0-0.161,0.48,0.161,0.801
		c0,0,0.641-0.48,0.481-0.801l0.159-7.214c0,0,0.322-0.801,0.803,0l-0.161,7.374c0,0,0,0.32,0.161,0.481c0,0,0.641-0.16,0.641-0.641
		l-0.159-7.213c0,0,0.479-0.802,0.802-0.16v7.694c0,0,0,0.32,0.319,0.481c0.322,0.162,0.481-0.32,0.481-0.32v-7.855
		c0,0,0.322-0.801,0.803,0v7.533c0,0-0.161,0.32,0.481,0.641v-8.014c0,0,0.481-0.961,0.962-0.16v8.174h0.319
		c0,0,0.321-0.32,0.162-0.641l0.32-7.533c0,0,0.321-0.801,0.642,0.16c0,0-0.161,7.533,0,7.533c0,0,0,0.32,0.641,0.48l0.159-8.014
		c0,0,0.162-0.961,0.803-0.16V55.9l0.322,0.32c0,0,0.32-0.16,0.32-0.481v-7.212c0,0,0.16-1.442,0.961-0.48v7.533
		c0,0,0,0.641,0.321,0.641c0.159,0,0.321-0.481,0.321-0.481l0.16-7.694c0,0,0.321-0.48,0.642,0v8.015l0.802,0.159l0.159-8.014
		c0,0,0.162-0.802,0.644,0.159v7.213c0,0,0,0.481,0.318,0.641L14.941,56.058L14.941,56.058z"/>
	<path fill="#FFFFFF" d="M-59.594,70.002v0.321c1.122,0.16,1.922,0.481,2.725,1.442v5.128c0,1.925,0,2.565-0.48,3.366
		c-0.321,0.803-1.123,1.283-2.404,1.442v0.159h6.572v-0.159c-0.802-0.159-1.123-0.159-1.603-0.481
		c-0.481-0.159-0.802-0.48-0.961-0.963c-0.481-0.641-0.481-1.281-0.481-3.365v-4.486l8.655,9.616h1.923v-7.051
		c0-1.925,0-2.726,0.641-3.528c0.32-0.641,0.962-0.963,2.245-1.122V70h-6.571v0.321c0.801,0.159,1.122,0.159,1.602,0.319
		c1.123,0.643,1.441,1.604,1.441,4.33v3.524L-53.824,70h-5.77V70.002z"/>
	<path fill="#FFFFFF" d="M5.484,70.643V80.1c0,1.283-0.32,1.443-2.564,1.603v0.159h8.814v-0.159
		c-2.405-0.159-2.565-0.319-2.565-1.603v-8.334c0-1.124,0.16-1.282,2.565-1.442v-0.321H5.162l-3.206,8.015l-3.366-8.015h-7.053
		v0.321c2.565,0.16,2.886,0.319,2.886,1.442v5.769c0,1.284-0.16,2.246-0.641,3.048c-0.48,0.641-0.961,0.962-2.404,1.121v0.16h6.573
		v-0.16c-0.642-0.159-0.962-0.159-1.282-0.318c-0.481-0.162-0.802-0.481-0.961-0.803c-0.641-0.643-0.641-1.283-0.641-3.048v-6.892
		l4.647,11.383h1.122L5.484,70.643L5.484,70.643z"/>
	<path fill="#FFFFFF" d="M31.77,80.1c0,1.283-0.159,1.443-2.242,1.603v0.159h8.496v-0.159c-2.245-0.159-2.565-0.319-2.565-1.603
		v-8.334c0-1.124,0.32-1.282,2.565-1.442v-0.321h-8.496v0.321c1.922,0.16,2.242,0.319,2.242,1.442v3.526h-5.61v-3.526
		c0-1.124,0.161-1.282,2.245-1.442v-0.321h-8.497v0.321c2.244,0.16,2.565,0.319,2.565,1.442V80.1c0,1.283-0.321,1.443-2.565,1.603
		v0.159h8.497v-0.159c-2.084-0.159-2.245-0.319-2.245-1.603v-4.326h2.726h2.885V80.1L31.77,80.1z"/>
	<path fill="#FFFFFF" d="M65.112,70.323c0.961,0.16,1.442,0.16,1.764,0.481c0.961,0.641,1.281,1.763,1.281,4.006v3.369
		c0,1.439-0.159,1.921-0.802,2.563c-0.801,0.644-1.764,0.963-3.045,0.963c-1.283,0-2.244-0.319-2.887-0.963
		c-0.641-0.48-0.801-0.961-0.801-2.563v-6.414c0-1.124,0.32-1.282,2.564-1.442v-0.321h-8.815v0.321
		c2.243,0.16,2.563,0.319,2.563,1.442v6.413c0,1.602,0.32,2.243,1.442,3.044c1.123,0.641,2.884,0.962,4.969,0.962
		c1.924,0,3.205-0.321,4.168-0.962c0.961-0.641,1.283-1.441,1.283-3.044V74.81c0-1.761,0.16-2.402,0.479-3.206
		c0.322-0.641,1.125-1.121,2.406-1.281v-0.321h-6.571L65.112,70.323L65.112,70.323z"/>
	<path fill="#FFFFFF" d="M82.743,70.002l-0.16,0.162c-0.321,0.479-0.48,0.641-0.803,0.641c-0.159,0-0.32,0-0.641-0.162
		c-1.443-0.479-2.404-0.8-3.849-0.8c-2.884,0-5.449,1.761-5.449,3.687c0,0.962,0.481,1.922,1.442,2.403
		c0.48,0.162,0.963,0.481,1.764,0.644c0.801,0.159,1.121,0.318,3.525,0.8c2.565,0.482,3.367,0.964,3.367,2.084
		c0,1.282-1.604,2.403-3.688,2.403c-2.885,0-4.809-1.602-6.092-5.128h-0.319v5.29h0.319c0.643-0.963,0.643-1.122,0.963-1.122
		c0.16,0,0.32,0,0.641,0.159c2.084,0.801,3.045,1.122,4.649,1.122c3.206,0,5.931-1.923,5.931-4.167c0-0.963-0.642-2.084-1.602-2.564
		c-0.803-0.479-1.604-0.802-3.688-1.123l-1.764-0.319c-2.403-0.481-3.044-0.962-3.044-1.925c0-1.122,1.283-1.921,3.044-1.921
		c1.443,0,2.728,0.479,3.688,1.44c0.642,0.644,1.123,1.283,1.602,2.564l0.162,0.16h0.318v-4.327L82.743,70.002L82.743,70.002z"/>
	<path fill="#FFFFFF" d="M84.986,70.002v0.321c2.246,0.16,2.565,0.319,2.565,1.442V80.1c0,1.283-0.319,1.443-2.565,1.603v0.159
		h14.587v-4.809h-0.321c-0.48,1.604-0.961,2.406-2.083,3.369c-0.962,0.801-2.084,1.122-3.849,1.122
		c-1.762,0-2.082-0.159-2.082-1.763v-4.007h0.48c1.924,0,3.046,0.962,3.205,3.046h0.323v-6.252h-0.323v0.321
		c-0.159,0.801-0.32,1.281-0.641,1.602c-0.48,0.643-1.441,0.962-2.564,0.962h-0.48v-3.688c0-1.124,0.32-1.282,2.082-1.282
		c1.765,0,2.727,0.159,3.527,0.962c0.962,0.804,1.443,1.604,1.924,2.885h0.32v-4.327L84.986,70.002L84.986,70.002z"/>
	<path fill="#FFFFFF" d="M-87.644,75.933c1.443,0,2.083,0.162,2.565,0.644c0.479,0.318,0.8,0.961,0.8,2.243
		c0,1.44,0.16,2.084,0.802,2.565c0.481,0.479,1.443,0.641,2.725,0.641c2.565,0,3.527-0.803,3.527-2.887h-0.321
		c0,1.443-0.641,2.246-1.603,2.246c-0.641,0-0.963-0.481-1.122-1.443v-0.963c-0.161-1.441-0.481-1.924-1.443-2.402
		c-0.961-0.644-2.245-0.803-4.648-0.803c1.283,0,1.922-0.16,2.884-0.322c2.404-0.318,3.688-1.282,3.688-2.563
		c0-0.963-0.962-1.925-2.245-2.405c-1.282-0.319-2.565-0.481-5.129-0.481h-8.013v0.321c2.245,0.16,2.565,0.319,2.565,1.442V80.1
		c0,1.283-0.32,1.443-2.565,1.603v0.159h8.976v-0.159c-2.404-0.159-2.725-0.319-2.725-1.603v-4.167H-87.644L-87.644,75.933z
		 M-88.926,71.766c0-1.124,0.161-1.282,1.924-1.282c1.123,0,1.924,0.159,2.404,0.48c0.48,0.481,0.802,1.122,0.802,2.085
		c0,0.8-0.321,1.602-0.962,1.924c-0.641,0.479-1.442,0.641-2.885,0.641h-1.283V71.766L-88.926,71.766z"/>
	<path fill="#FFFFFF" d="M-65.684,79.78c0.16,0.479,0.321,0.802,0.321,0.961c0,0.644-0.481,0.803-2.084,0.962v0.16h8.335v-0.16
		h-0.32c-1.441-0.159-1.603-0.318-2.404-1.922l-5.129-9.938h-2.083l-4.167,8.174c-0.321,0.641-0.961,1.442-1.443,2.083
		c-0.641,0.964-1.441,1.284-2.885,1.603v0.16h6.731v-0.16c-1.603-0.159-2.404-0.641-2.404-1.441c0-0.643,0.16-1.283,0.481-1.922
		l0.642-1.123h5.128L-65.684,79.78L-65.684,79.78z M-69.691,76.895c-0.481,0-1.283,0-2.245,0l2.245-4.646l2.404,4.646
		C-68.249,76.895-69.05,76.895-69.691,76.895L-69.691,76.895z"/>
	<path fill="#FFFFFF" d="M-42.763,70.323c2.405,0.16,2.565,0.319,2.565,1.442V80.1c0,1.283-0.16,1.443-2.565,1.603v0.159h8.174
		c3.045,0,4.809-0.318,6.412-1.439s2.404-2.725,2.404-4.327c0-1.765-0.802-3.368-2.565-4.489c-1.603-1.122-3.366-1.603-6.092-1.603
		h-8.335L-42.763,70.323L-42.763,70.323z M-34.428,70.483c1.764,0,3.207,0.48,3.847,1.602c0.481,0.804,0.802,2.243,0.802,4.009
		c0,1.439-0.159,2.884-0.641,3.687c-0.641,1.123-2.083,1.763-4.006,1.763c-1.763,0-1.923-0.16-1.923-1.283v-8.494
		C-36.35,70.643-36.191,70.483-34.428,70.483L-34.428,70.483z"/>
	<path fill="#FFFFFF" d="M-16.956,69.843c-4.327,0-7.855,2.725-7.855,6.09c0,3.527,3.527,6.252,7.855,6.252
		c4.329,0,7.854-2.725,7.854-6.252C-9.103,72.567-12.629,69.843-16.956,69.843L-16.956,69.843z M-16.956,81.863
		c-2.564,0-3.847-1.763-3.847-5.931c0-4.007,1.283-5.769,3.847-5.769c2.725,0,3.847,1.762,3.847,5.769
		C-13.109,80.1-14.231,81.863-16.956,81.863L-16.956,81.863z"/>
	<path fill="#FFFFFF" d="M46.358,69.843c-4.328,0-7.854,2.725-7.854,6.09c0,3.527,3.526,6.252,7.854,6.252
		c4.327,0,7.854-2.725,7.854-6.252C54.213,72.567,50.685,69.843,46.358,69.843L46.358,69.843z M46.358,81.863
		c-2.726,0-3.848-1.763-3.848-5.931c0-4.007,1.122-5.769,3.848-5.769c2.725,0,3.848,1.762,3.848,5.769
		C50.204,80.1,49.083,81.863,46.358,81.863L46.358,81.863z"/>
</g>
</svg>
