<?xml version="1.0" encoding="utf-8"?>
<!-- Generator: Adobe Illustrator 15.0.2, SVG Export Plug-In . SVG Version: 6.00 Build 0)  -->
<!DOCTYPE svg PUBLIC "-//W3C//DTD SVG 1.1//EN" "http://www.w3.org/Graphics/SVG/1.1/DTD/svg11.dtd">
<svg version="1.1" id="White_copy" xmlns="http://www.w3.org/2000/svg" xmlns:xlink="http://www.w3.org/1999/xlink" x="0px" y="0px"
	 width="395px" height="227px" viewBox="-195.302 -73.563 395 227" enable-background="new -195.302 -73.563 395 227"
	 xml:space="preserve">
<g id="Kia_1_">
	<path fill="#CBFF48" d="M2.198-3.512c-47.819,0-86.585,19.454-86.585,43.45s38.766,43.45,86.585,43.45
		c47.819,0,86.583-19.454,86.583-43.45S50.017-3.512,2.198-3.512z M2.197,77.915c-42.148,0-76.441-17.039-76.441-37.979
		c0-20.938,34.293-37.972,76.441-37.972c42.15,0,76.442,17.034,76.442,37.972C78.638,60.876,44.346,77.915,2.197,77.915z"/>
	<path fill="#CBFF48" d="M-6.222,20.453h1.396c0.489,0,0.872,0.382,0.872,0.87v39.721c0,0.525,0.41,0.931,0.932,0.931H7.379
		c0.524,0,0.936-0.405,0.936-0.931V18.723c0-0.514-0.419-0.934-0.936-0.934H-6.222c-0.135,0-0.135,0.128-0.135,0.229v2.207
		C-6.357,20.321-6.357,20.453-6.222,20.453z"/>
	<path fill="#CBFF48" d="M17.23,61.975h10.212c0.495,0,1.021-0.394,1.226-0.919l8.711-27.419c0-0.007,0.1-0.382,0.425-0.382
		c0.311,0,0.414,0.379,0.417,0.382l8.805,27.419c0.212,0.534,0.729,0.919,1.231,0.919h10.208c0.358,0,0.563-0.177,0.674-0.325
		c0.196-0.269,0.219-0.608,0.154-0.814L45.081,18.406c-0.22-0.549-0.775-0.617-1.233-0.617H27.544c-0.119,0-0.232,0.11-0.232,0.229
		v2.207c0,0.113,0.115,0.228,0.232,0.228h1.2c0.521,0,0.871,0.303,0.871,0.76c0,0.149-0.034,0.307-0.103,0.501l-13.11,39.123
		c-0.076,0.278-0.017,0.579,0.157,0.809C16.722,61.86,16.96,61.975,17.23,61.975z"/>
	<path fill="#CBFF48" d="M-52.255,20.453c0.489,0,0.874,0.382,0.874,0.87v39.721c0,0.525,0.407,0.931,0.927,0.931h10.113
		c0.509,0,0.924-0.418,0.924-0.931V44.34c0-0.364,0.167-0.573,0.462-0.573c0.348,0,0.51,0.236,0.639,0.424
		c0.015,0.021,0.026,0.041,0.042,0.06l11.91,16.71c0.384,0.579,1.082,1.015,1.623,1.015h12.006c0.283,0,0.594-0.203,0.74-0.483
		c0.157-0.302,0.116-0.644-0.111-0.967c-0.036-0.054-15.054-21.292-15.206-21.507c-0.045-0.064-0.064-0.105-0.093-0.154
		c-0.033-0.06-0.064-0.129-0.076-0.191c-0.01-0.044-0.027-0.084-0.027-0.143c0-0.18,0.088-0.361,0.183-0.555l0.013-0.024
		l12.708-18.816c0.162-0.263,0.162-0.608,0.001-0.896c-0.158-0.279-0.433-0.449-0.734-0.449h-11.397
		c-0.542,0-1.242,0.436-1.633,1.014l-9.909,14.011c-0.309,0.459-0.611,0.483-0.669,0.483h-0.01c-0.277,0-0.462-0.185-0.462-0.469
		V18.723c0-0.514-0.415-0.934-0.924-0.934h-13.313c-0.121,0-0.231,0.11-0.231,0.229v2.207c0,0.116,0.112,0.228,0.231,0.228H-52.255z
		"/>
</g>
</svg>
