<?xml version="1.0" encoding="utf-8"?>
<!-- Generator: Adobe Illustrator 18.0.0, SVG Export Plug-In . SVG Version: 6.00 Build 0)  -->
<!DOCTYPE svg PUBLIC "-//W3C//DTD SVG 1.1//EN" "http://www.w3.org/Graphics/SVG/1.1/DTD/svg11.dtd">
<svg version="1.1" id="White_copy" xmlns="http://www.w3.org/2000/svg" xmlns:xlink="http://www.w3.org/1999/xlink" x="0px" y="0px"
	 viewBox="0 0 395 227" enable-background="new 0 0 395 227" xml:space="preserve">
<g>
	<path fill="#FFFFFF" d="M84.2,84l2,0c9.1-0.1,18.9,0.7,27.7,2.2l2.1-12.4c-15.6,5.2-32.1,8.7-61.4,8.6l16.9,49.9l4.2-0.7
		c1.8-8.9,6.3-16.7,12.7-22.6L84.2,84z"/>
	<path fill="#FFFFFF" d="M115.7,133.3h35.6c-2.7-16.9-17.3-29.8-34.9-29.8c-7.8,0-15.1,2.6-21,6.9
		C105.2,114.6,112.7,123,115.7,133.3"/>
	<path fill="#FFFFFF" d="M152,99.1L152,99.1c-11.4-3.8-23.6-7.7-36.3-10l-2.2-0.4c-0.5-0.1-0.9-0.2-1.4-0.2c-8-1.3-16.8-2-25-2
		c0.2,1.1,3.2,18.5,3.4,20c0,0.2,0.1,0.4,0.1,0.5c6.1-4.9,13.4-7.9,21.1-8.9l0,0l0.2,0l2.3-0.2c0.8,0,2.6-0.1,2.6-0.1
		c12.1,0,23.6,5.3,31.6,14.4c0.2-0.6,3.3-10.5,4-12.8C152.3,99.2,152.1,99.2,152,99.1"/>
	<polygon fill="#FFFFFF" points="155.5,143.4 75.5,143.5 78.7,153.2 	"/>
	<polygon fill="#FFFFFF" points="164.5,140 164.5,117 166.2,104.1 170.1,105.8 170.1,136.3 185.4,136.3 186,140 	"/>
	<path fill="#FFFFFF" d="M212.7,140l-3.2-9.7h-11.9l-3.3,9.7h-3.9l11.1-33.2l-0.7-2l5.7-1.3l12.2,36.5H212.7z M203.6,113h-0.2
		l-4.6,13.8h9.3L203.6,113z"/>
	<path fill="#FFFFFF" d="M247.2,124h-5.8v15.6l-5.6,1V117l1.7-12c6.1-0.1,12.2,0.1,12.8,0.2c5.9,0.6,10.3,4.7,10.3,9
		C260.5,119.9,255.6,124,247.2,124 M247.2,108.5h-5.8v12h6.4c4.8,0,7.5-2.4,7.5-6.1C255.3,110.9,252.3,108.5,247.2,108.5"/>
	<polygon fill="#FFFFFF" points="286.1,140 286.1,123.6 271.2,123.6 271.2,139.6 265.5,140.5 265.5,117 267.2,104.1 271.2,105.8 
		271.2,119.8 286.1,119.8 286.1,105 290.3,105 290.3,140 	"/>
	<polygon fill="#FFFFFF" points="301.7,140.5 301.7,105 307.4,105 307.4,139.6 	"/>
	<polygon fill="#FFFFFF" points="318.9,140 318.9,117 320.5,104.1 324.5,105.8 324.5,136.3 339.7,136.3 340.4,140 	"/>
</g>
</svg>
