<?xml version="1.0" encoding="utf-8"?>
<!-- Generator: Adobe Illustrator 15.0.2, SVG Export Plug-In . SVG Version: 6.00 Build 0)  -->
<!DOCTYPE svg PUBLIC "-//W3C//DTD SVG 1.1//EN" "http://www.w3.org/Graphics/SVG/1.1/DTD/svg11.dtd">
<svg version="1.1" id="White_copy" xmlns="http://www.w3.org/2000/svg" xmlns:xlink="http://www.w3.org/1999/xlink" x="0px" y="0px"
	 width="395px" height="227px" viewBox="0 0 395 227" enable-background="new 0 0 395 227" xml:space="preserve">
<g id="Disney_XD">
	<g>
		<path fill="#CBFF48" d="M121.971,64.394h1.355c6.374,0.338,12.515,2.918,17.539,6.794c1.178-2.063,3.18-3.671,5.489-4.28
			c1.821-0.521,3.923-0.565,5.572,0.484c0.875,0.603,1.999,0.798,2.734,1.607c1.007,0.994,1.309,2.51,1.095,3.869
			c-0.118,0.791-0.463,1.521-0.828,2.223c1.214,0.007,2.442,0.02,3.633,0.282c0.544,0.118,1.019,0.428,1.546,0.592
			c0.587,0.015,1.175-0.063,1.764-0.04c0.499-1.121,1.569-2.041,2.84-2.052c1.52-0.102,2.772,0.962,3.684,2.06
			c1.621-0.395,3.286-0.524,4.943-0.677c0.883-0.07,1.793-0.172,2.658,0.083c0.67,0.174,1.284,0.504,1.873,0.862
			c0.69-0.59,1.495-1.163,2.445-1.151c0.995-0.053,1.895,0.496,2.542,1.211c0.791-0.25,1.644-0.518,2.472-0.277
			c0.861,0.241,1.594,0.795,2.213,1.423c3.256,3.271,6.529,6.529,9.79,9.795c0.185,0.219,0.466,0.277,0.743,0.271
			c21.675-0.003,43.35,0,65.025-0.001c0.986,0.006,1.999-0.071,2.961,0.207c0.938,0.249,1.743,0.838,2.419,1.518
			c4.039,4.036,8.071,8.077,12.114,12.111c1.068,0.974,1.866,2.299,1.909,3.775v38.208c-0.093,0.644-0.237,1.294-0.556,1.868
			c-0.52,0.972-1.368,1.698-2.13,2.475c-3.789,3.787-7.566,7.59-11.365,11.366c-0.753,0.781-1.71,1.36-2.773,1.604h-70.829
			c-0.94-0.239-1.834-0.687-2.518-1.384c-3.475-3.475-6.94-6.96-10.429-10.422c-3.51,3.443-6.952,6.957-10.442,10.422
			c-0.682,0.693-1.569,1.146-2.506,1.384h-20.551c-1.163-0.312-2.215-1.095-2.712-2.208c-0.489-0.957-0.403-2.059-0.405-3.097
			c0.003-5.199-0.003-10.398,0-15.597c0.005-1.161-0.091-2.374,0.354-3.474c0.419-1.097,1.307-1.904,2.117-2.718
			c3.15-3.137,6.278-6.297,9.438-9.424c-12.277-12.298-24.574-24.577-36.859-36.867c-0.75-0.747-1.548-1.455-2.161-2.322
			c-0.718-0.994-1.369-2.145-1.289-3.416c-0.003-1.104,0.547-2.132,1.352-2.86c1.504-1.528,3.601-2.207,5.606-2.793
			c0.14-1.244,0.375-2.492,0.966-3.608c-1.606-0.264-3.24-0.537-4.869-0.416c-0.417,0.318-0.737,0.761-1.213,0.999
			c-0.954,0.481-2.07,0.521-3.108,0.36c-1.13-0.183-2.16-0.926-2.654-1.961c-0.456-0.975-0.354-2.136,0.048-3.112
			c0.763-1.479,2.139-2.667,3.761-3.094C118.465,64.551,120.227,64.472,121.971,64.394z M117.628,67.502
			c-0.883,0.141-1.569,0.796-2.012,1.538c-0.165,0.323-0.208,0.811,0.182,0.99c0.524,0.234,1.165,0.241,1.694,0.015
			c0.043-0.347-0.367-0.486-0.547-0.72c0.013-0.41,0.546-0.373,0.834-0.459c4.611-0.556,9.29,0.451,13.534,2.245
			c2.571,1.129,5.038,2.569,7.106,4.484c1.281,1.216,2.46,2.637,2.959,4.363c0.39,1.236,0.226,2.649-0.493,3.735
			c-0.702,1.045-1.813,1.757-2.981,2.182c-2.753,1.014-5.801,1.167-8.671,0.595c-0.157-2.1-0.134-4.211-0.202-6.317
			c1.969-0.073,3.975,0.154,5.826,0.851c0.271,0.141,0.731,0.254,0.716,0.634c-0.267,0.441-0.67,0.785-0.914,1.244
			c0.275,0.103,0.556,0.206,0.851,0.224c1.337,0.26,2.558-1.39,1.994-2.613c-0.396-1.003-1.41-1.566-2.367-1.929
			c-1.968-0.708-4.086-0.78-6.156-0.801c-0.048-1.083-0.123-2.176-0.383-3.231c-0.139-0.475-0.297-1.025-0.756-1.286
			c-0.406-0.172-0.645,0.31-0.765,0.614c-0.456,1.32-0.493,2.737-0.571,4.119c-1.773,0.307-3.558,0.735-5.149,1.602
			c-0.569,0.34-1.173,0.712-1.504,1.304c-0.36,0.644,0.075,1.363,0.444,1.894c1.538,2.107,3.819,3.534,6.146,4.625
			c0.071,0.554,0.073,1.146,0.358,1.644c0.4,0.713,1.528,0.796,2.061,0.196c0.181-0.266,0.249-0.587,0.36-0.883
			c3.672,0.897,7.72,0.71,11.106-1.073c2.017-1.073,3.762-2.954,4.067-5.29c0.255-1.68-0.446-3.317-1.372-4.68
			c-1.488-2.196-3.545-3.933-5.721-5.414c-2.059-1.372-4.275-2.51-6.605-3.344C126.544,67.033,121.969,66.578,117.628,67.502z
			 M146.322,69.7c-1.345,0.592-2.568,1.631-3.11,3.026c-0.303,0.753-0.147,1.612,0.294,2.276c0.413,0.536,0.089,1.385,0.68,1.808
			c0.461,0.229,0.861-0.156,1.141-0.478c1.022,0.221,2.108,0.317,3.117-0.025c1.517-0.512,2.896-1.461,3.877-2.732
			c0.541-0.7,0.906-1.7,0.478-2.543c-0.204-0.425-0.648-0.617-1.08-0.722c-0.677-0.134-1.106-0.741-1.753-0.94
			C148.769,68.958,147.46,69.234,146.322,69.7z M164.578,76.69c-0.166,0.458-0.012,0.944,0.086,1.398
			c0.376,1.397,0.863,2.767,1.146,4.188c0.116,0.531,0.094,1.08-0.101,1.589c-0.609-0.541-0.999-1.264-1.463-1.919
			c-0.713-1.033-1.403-2.102-2.304-2.986c-0.262-0.226-0.601-0.545-0.972-0.381c-0.433,0.298-0.615,0.829-0.79,1.302
			c-0.455,1.43-0.687,2.924-0.818,4.416c-0.038,0.812-0.088,1.687,0.299,2.429c0.271,0.502,1.145,0.632,1.408,0.057
			c0.65-1.575,0.222-3.339,0.652-4.958c0.634,0.552,0.992,1.331,1.467,2.009c0.617,0.914,1.189,1.896,2.05,2.608
			c0.469,0.443,1.198,0.232,1.624-0.165c0.853-0.788,1.219-1.99,1.206-3.127c-0.066-1.718-0.599-3.402-1.432-4.9
			c-0.388-0.634-0.8-1.322-1.48-1.677C164.978,76.488,164.634,76.427,164.578,76.69z M153.694,77.785
			c-1.322,0.146-2.697,0.365-3.84,1.09c-0.766,0.468-1.246,1.418-1.027,2.308c0.176,0.599,0.786,0.922,1.36,1.039
			c1.294,0.265,2.629,0.098,3.932,0.307c0.985,0.156,2.034,0.3,2.878,0.866c0.436,0.355-0.114,0.837-0.463,0.984
			c-1.43,0.648-3.031,0.841-4.585,0.9c-0.544-0.045-1.277,0.018-1.616-0.504c-0.203-0.564,0.446-1.015,0.959-0.95
			c1.188,0.146,2.251,1.037,3.493,0.77c0.466-0.101,1.067-0.285,1.203-0.805c-0.234-0.514-0.877-0.615-1.362-0.773
			c-1.25-0.264-2.58-0.527-3.842-0.196c-0.853,0.214-1.528,1.062-1.38,1.959c0.192,0.821,0.897,1.398,1.614,1.77
			c1.148,0.594,2.472,0.733,3.746,0.702c1.268-0.078,2.641-0.448,3.469-1.479c0.785-0.954,0.799-2.477-0.04-3.398
			c-0.545-0.598-1.349-0.859-2.117-1.019c-1.315-0.224-2.652-0.271-3.976-0.42c-0.378-0.051-0.78-0.098-1.106-0.313
			c0.043-0.367,0.488-0.463,0.785-0.542c1.861-0.348,3.775-0.239,5.638-0.574c0.425-0.086,0.871-0.186,1.223-0.453
			c0.272-0.172,0.274-0.604,0.025-0.793c-0.502-0.38-1.161-0.41-1.762-0.484C155.836,77.699,154.761,77.703,153.694,77.785z
			 M179.172,78.831c-0.944,1.226-1.783,2.607-2.045,4.155c-0.214,0.96,0.021,1.939,0.405,2.823c-0.702,2.25-1.45,4.505-1.742,6.854
			c-0.064,0.705-0.154,1.461,0.186,2.115c0.345,0.699,1.004,1.384,1.847,1.319c0.504-2.865,1.584-5.577,2.268-8.397
			c2.447,0.106,4.665-1.523,5.912-3.528c0.838-1.279,0.937-2.971,0.295-4.353c-0.321-0.644-0.917-1.256-1.67-1.311
			c-0.553,0.046-1.027,0.372-1.47,0.678c-1.677,1.231-2.969,2.881-4.328,4.434c-0.035-0.318-0.139-0.65-0.027-0.965
			c0.407-1.315,1.218-2.45,1.81-3.681c0.241-0.458,0.101-0.972-0.138-1.395C179.952,77.896,179.544,78.354,179.172,78.831z
			 M169.843,78.278c-0.322,0.101-0.756,0.157-0.889,0.519c0.114,0.731,0.94,0.92,1.501,1.212c-0.037,0.3-0.063,0.604-0.141,0.897
			c-0.129,0.729-1.098,0.698-1.36,1.359c0.489,0.779-0.12,1.585-0.291,2.36c-0.428,1.309,0.398,3.115,1.879,3.23
			c1.418,0.031,2.793-0.484,4-1.198c0.44-0.281,0.914-0.563,1.191-1.021c-0.118-0.609-0.786-1.058-1.395-0.967
			c-1.111,0.123-2.198,0.416-3.317,0.473c0.063-0.69,0.018-2.007,0.987-1.991c0.886-0.078,1.78,0.02,2.663-0.098
			c0.624-0.129,0.705-1.08,0.181-1.389c-0.869-0.149-1.765-0.038-2.629-0.234c0.035-0.401,0.017-0.83,0.234-1.186
			c0.886-0.252,1.823-0.204,2.734-0.282c0.591-0.04,1.327,0.02,1.706-0.54c0.189-0.403-0.266-0.728-0.513-0.987
			c-0.729-0.684-1.777-0.702-2.709-0.572C172.396,77.995,171.105,78.031,169.843,78.278z M146.355,78.033
			c-0.305,0.267-0.375,0.687-0.475,1.06c-0.307,1.435-0.31,2.911-0.35,4.373c-0.01,0.964-0.033,1.942,0.181,2.89
			c0.093,0.419,0.32,0.886,0.783,0.984c0.416,0.068,1.038,0.118,1.222-0.369c0.295-0.856,0.167-1.78,0.184-2.667
			c-0.076-1.825-0.043-3.681-0.468-5.466C147.336,78.376,146.888,77.638,146.355,78.033z M148.874,90.525
			c-0.419,0.181-0.655,0.635-0.633,1.083c-0.007,6.135,0,12.271-0.003,18.405c-0.032,0.637,0.285,1.223,0.723,1.664
			c3.865,3.874,7.749,7.73,11.607,11.61c0.522,0.458,0.403,1.284-0.101,1.707c-3.615,3.626-7.243,7.241-10.867,10.857
			c-0.614,0.601-1.37,1.251-1.355,2.191c-0.015,6.081,0.003,12.162-0.01,18.244c0.005,0.381,0.003,0.817,0.295,1.107
			c0.265,0.33,0.716,0.355,1.108,0.354c5.69-0.005,11.38-0.003,17.069-0.002c0.699-0.013,1.437,0.08,2.092-0.222
			c0.563-0.289,0.969-0.786,1.41-1.223c3.558-3.569,7.128-7.125,10.681-10.696c0.289-0.287,0.649-0.591,1.086-0.537
			c0.493,0.043,0.825,0.459,1.158,0.777c3.722,3.742,7.466,7.464,11.192,11.202c0.453,0.468,1.093,0.709,1.742,0.697
			c6.083,0,12.167,0.001,18.252-0.002c0.637,0.068,1.267-0.458,1.219-1.119c0.015-6.135,0-12.271,0.007-18.407
			c0.05-0.691-0.292-1.323-0.781-1.786c-3.568-3.559-7.128-7.128-10.694-10.688c-0.377-0.386-0.807-0.736-1.084-1.204
			c-0.252-0.456-0.056-1.005,0.311-1.33c3.588-3.597,7.183-7.185,10.774-10.778c0.624-0.642,1.475-1.275,1.468-2.266
			c0.012-6.188,0.005-12.377,0.004-18.566c0.074-0.673-0.558-1.234-1.212-1.158c-5.865-0.008-11.732,0-17.598-0.003
			c-0.668-0.05-1.279,0.284-1.737,0.745c-4.063,4.067-8.132,8.13-12.194,12.198c-0.313,0.333-0.786,0.592-1.249,0.408
			c-0.435-0.204-0.74-0.589-1.077-0.916c-3.697-3.708-7.408-7.402-11.106-11.107c-0.59-0.599-1.237-1.349-2.158-1.321
			c-5.806-0.018-11.613,0.003-17.419-0.011C149.486,90.442,149.169,90.427,148.874,90.525z M219.193,90.507
			c-0.529,0.163-0.728,0.753-0.696,1.258c0.005,21.568,0.001,43.138,0.003,64.706c-0.033,0.505,0.223,1.075,0.75,1.206
			c0.561,0.095,1.135,0.035,1.702,0.047c14.156,0,28.313,0,42.47,0.001c0.58-0.01,1.17,0.042,1.747-0.051
			c0.701-0.194,1.179-0.786,1.679-1.279c4.025-4.039,8.075-8.059,12.1-12.102c0.579-0.54,0.64-1.359,0.602-2.104
			c-0.01-11.831-0.001-23.662-0.003-35.491c-0.015-0.668,0.06-1.35-0.095-2.007c-0.259-0.698-0.853-1.192-1.362-1.708
			c-3.681-3.672-7.354-7.349-11.034-11.021c-0.527-0.52-1.026-1.108-1.717-1.415c-0.567-0.174-1.171-0.095-1.752-0.11
			c-14.208,0.003-28.416,0.002-42.622,0.002C220.373,90.449,219.772,90.383,219.193,90.507z"/>
	</g>
	<path fill="#CBFF48" d="M145.003,72.213c0.655-0.67,1.573-1.005,2.482-1.165c-1.059,0.668-2.027,1.465-2.89,2.369
		C144.501,72.979,144.688,72.519,145.003,72.213z"/>
	<path fill="#CBFF48" d="M149.229,71.939c0.603-0.363,1.467-0.839,2.104-0.287c0.526,0.562,0.045,1.372-0.456,1.77
		c-1.327,1.055-3.127,1.69-4.814,1.232C146.973,73.597,148.063,72.701,149.229,71.939z"/>
	<path fill="#CBFF48" d="M121.401,80.951c1.626-0.524,3.351-0.597,5.042-0.72c0.008,1.833-0.033,3.666-0.043,5.499
		c-1.75-0.642-3.454-1.471-4.923-2.629c-0.419-0.358-0.899-0.733-1.058-1.286C120.419,81.3,121.008,81.115,121.401,80.951z"/>
	<path fill="#CBFF48" d="M183.686,81.36c0.274-0.335,0.559-0.684,0.945-0.893c0.331-0.096,0.627,0.204,0.672,0.516
		c0.197,0.916-0.159,1.87-0.758,2.563c-0.841,0.956-2.049,1.613-3.334,1.666C181.971,83.888,182.747,82.566,183.686,81.36z"/>
</g>
</svg>
