<?xml version="1.0" encoding="utf-8"?>
<!-- Generator: Adobe Illustrator 18.0.0, SVG Export Plug-In . SVG Version: 6.00 Build 0)  -->
<!DOCTYPE svg PUBLIC "-//W3C//DTD SVG 1.1//EN" "http://www.w3.org/Graphics/SVG/1.1/DTD/svg11.dtd">
<svg version="1.1" xmlns="http://www.w3.org/2000/svg" xmlns:xlink="http://www.w3.org/1999/xlink" x="0px" y="0px"
	 viewBox="0 0 395 227" enable-background="new 0 0 395 227" xml:space="preserve">
<g id="Layer_2">
	<g>
		<g>
			<linearGradient id="SVGID_1_" gradientUnits="userSpaceOnUse" x1="121.8043" y1="113.2328" x2="121.8043" y2="88.5918">
				<stop  offset="0" style="stop-color:#CBFF48;stop-opacity:0"/>
				<stop  offset="1" style="stop-color:#CBFF48"/>
			</linearGradient>
			<path fill="url(#SVGID_1_)" d="M105.6,90.4c-0.2,2-0.5,4-0.7,6c0,0,0,0,0,0c0,0.5-0.1,1-0.1,1.5c0,0.5,0,1,0.1,1.5 M104.9,99.4
				c0,0.2,0,0.3-0.1,0.5c0,0.5,0,1,0,1.5c0.1,0.6,0.2,1.2,0.2,1.7c0.1,0.1,0.2,0.2,0.2,0.2c0,0,0,0,0,0c0.1,0.7,0.1,1.3,0.2,2
				c0.1,0.4,0.2,0.7,0.3,1.1c-0.1,0.2-0.2,0.3-0.2,0.3c4.7,8.3,10.5,9.9,15.8,9.6c5.3-0.3,16.2-0.9,16.9-15.4
				c0.1-0.2,0.2-0.5,0.2-0.7c0,0,0,0,0,0c0-0.7,0-1.3,0-2c0-0.8,0-1.7,0-2.5c-0.2-1.8-0.4-3.6-0.7-5.5c-0.1-0.5,0-0.9-0.2-1.3
				c-1.2-3.6-2.3-7.2-3.5-10.8c-0.3-0.7-0.7-1.3-1-2c-0.8-1.2-1.7-2.5-2.5-3.7c-1.5-1.3-3-2.8-4.7-3.8c-3.3-2-6.6-1.4-9.7,0.6
				c-3.9,2.5-6,6.4-7.7,10.5c-1.5,3.5-2.6,7-3,10.8 M113.9,101.6c0-0.3-0.1-0.6-0.1-0.9c-0.2-0.6-0.4-1.2-0.5-1.8l0,0
				c0-0.7,0-1.5,0-2.2c-0.1-0.3-0.1-0.5-0.2-0.8c0.2-1.9,0.3-3.8,0.5-5.7c0,0,0,0,0,0c0.3-1.1,0.6-2.2,0.8-3.3
				c0.4-1.2,0.8-2.5,1.2-3.7c1.1-1.8,2.1-3.7,3.4-5.2c1.8-2.1,3.7-2.1,5.5,0c1.4,1.6,2.3,3.5,3.4,5.3c0.4,1.4,0.9,2.8,1.3,4.2
				c0.3,1.1,0.5,2.2,0.8,3.2c0.2,1.8,0.3,3.7,0.5,5.5 M130.6,96.2c-0.1,0.3-0.1,0.5-0.2,0.8c0,0.7,0,1.4,0,2.2c0.1,0,0.2,0,0.3,0
				c-0.1,0-0.2,0-0.3,0c-0.2,0.8-0.4,1.7-0.7,2.5c0,0,0,0,0,0c-0.2,0.3-0.5,0.6-0.7,0.8c-0.3,0.4-0.5,0.8-0.8,1.2c0,0.1,0,0.2,0,0.2
				c0,0,0.1,0,0.1,0c-0.6,0.5-1.1,0.9-1.6,1.3c0,0,0-0.1,0.1-0.1c-0.4,0.1-0.8,0.2-1.2,0.3c-2.3,0.9-4.6,0.6-7,0.2
				c-0.7-0.2-1.3-0.5-2-0.7c-0.2-0.1-0.4-0.2-0.6-0.3c-0.3-0.4-0.6-0.8-0.9-1.1c-0.2-0.2-0.3-0.5-0.5-0.7c-0.2-0.3-0.5-0.7-0.7-1"/>
			<linearGradient id="SVGID_2_" gradientUnits="userSpaceOnUse" x1="155.0188" y1="113.2328" x2="155.0188" y2="88.5918">
				<stop  offset="0" style="stop-color:#CBFF48;stop-opacity:0"/>
				<stop  offset="1" style="stop-color:#CBFF48"/>
			</linearGradient>
			<path fill="url(#SVGID_2_)" d="M166.3,104.6c-0.3-0.7-0.7-1.1-1-1.3c-0.2-0.5-0.4-0.9-0.7-1.4c-0.3,0.1-0.3,0.1,0,0
				c0-0.1,0-0.1,0-0.2c-0.4-0.7-0.9-1.3-1.3-2h0c0-0.1,0-0.2,0-0.2c-0.6-0.8-1.1-1.5-1.7-2.3c-0.4-0.6-0.8-1.1-1.2-1.7
				c-0.9-1.1-0.5-1.9,0.5-2.7c0.9-0.8,1.7-1.7,2.5-2.5c-0.4,0-0.4,0,0,0c2.2-2.3,3-5,3.2-8.1c0-0.5,0-0.9,0-1.4
				c-0.1-0.7-0.3-1.5-0.4-2.2c-0.3-0.7-0.6-1.3-0.8-2c-0.5-0.6-1-1.2-1.4-1.8c-1.8-0.8-3.6-1.6-5.4-2.4c-3.9,0-7.8-0.1-11.7-0.1
				c-0.8,0-1.7,0-2.5,0c-0.3,0.1-0.6,0.2-1,0.3c-0.2,0.3-0.4,0.7-0.6,1c-0.1,0.2-0.1,0.3-0.2,0.5c-0.1,0.5-0.2,1-0.3,1.5
				c-0.1,0.5-0.2,1-0.3,1.5c-0.1,0.4-0.1,0.8-0.2,1.2c0,0.5,0,0.9,0,1.4c-0.2,3.5-0.3,7.1-0.5,10.6c0,1.7-0.1,3.5-0.1,5.2
				c0,0.7,0,1.5,0,2.2c0,0.4,0,0.8,0,1.2c0,0.4,0,0.8,0,1.2c0,0.5,0,1,0.1,1.5c0,0,0,0,0,0c0,0.2,0,0.5,0,0.7c0,0.3,0,0.7,0,1
				c0,0.4,0,0.8-0.1,1.3l0.1,0l0,2.5l0.5,14.4l9.2-0.1l-1.5-11.6c-0.1-0.7-0.1-1.2-0.2-1.7c-0.1-0.3-0.2-0.7-0.2-1
				c0-0.2,0-0.5,0-0.7c0,0,0,0,0,0c0-0.3,0-0.7,0-1c-0.1-0.3-0.2-0.5-0.3-0.8l0-0.8c0-0.2,0-0.5-0.1-0.7c0,0,0,0,0,0
				c0-0.3,0-0.7,0.1-1c-0.1,0-0.1-0.1-0.2-0.1c0.1,0,0.1,0.1,0.2,0.1c0.1,0,0.1,0,0.2,0c0.3-0.7,0.7-1.3,1-2
				c0.2-0.2,0.4-0.4,0.6-0.6c0,0,0,0,0,0c0.4-0.3,0.7-0.6,1.1-0.8c1.5-0.8,2-0.7,3.5,0.7c0.3,0.6,0.6,1.1,0.9,1.7
				c0.2,0.3,0.3,0.6,0.5,1c0.1,0,0.1,0,0.2,0h0c0.1,0.4,0.1,0.8,0.2,1.2c0.2,0.3,0.3,0.7,0.5,1c0.2,0.3,0.3,0.7,0.5,1c0,0,0,0,0,0
				c0,0.1,0,0.2,0,0.2c0.1,0.5,0.2,1,0.3,1.5c0.1,0.3,0.2,0.7,0.2,1c0.2,0.7,0.3,1.3,0.5,2c0.2,1.1,0.4,2.2,0.5,3.4
				c0,0.4,0.1,0.8,0.3,1.1c0.3,2,0.7,5.3,0.9,6.8l8.3-0.1C168.8,121.3,169.3,110.8,166.3,104.6z M158.5,85.3
				c-1.1,1.6-2.7,2.9-4.1,4.4c-0.1,0.1-0.2,0.2-0.3,0.3c-1,0.6-1.9,1.2-2.9,1.7c-1.9,0.9-2.4,0.7-2.9-1.4h0c0.2-2.6,0.1-5.2,0.6-7.7
				c0.7-4,5.3-5.6,8.6-3.2C159.4,80.6,159.9,83.2,158.5,85.3z"/>
			<linearGradient id="SVGID_3_" gradientUnits="userSpaceOnUse" x1="180.6381" y1="113.2328" x2="180.6381" y2="88.5918">
				<stop  offset="0" style="stop-color:#CBFF48;stop-opacity:0"/>
				<stop  offset="1" style="stop-color:#CBFF48"/>
			</linearGradient>
			<path fill="url(#SVGID_3_)" d="M193,101.6c-0.1-0.7-0.2-1.5-0.3-2.2c0-0.7-0.1-1.3-0.1-2c0-0.1-0.1-0.2-0.1-0.3
				c-0.1-0.5-0.1-1-0.2-1.5c-0.2-0.5-0.4-1-0.5-1.5c-0.2,0-0.3,0-0.5,0c-0.7,0.2-1.3,0.5-2,0.7c-0.5,0.2-1,0.4-1.5,0.6
				c-1.3,0.7-2.6,1.3-4.1,2.1c0.3,0.5,0.6,0.9,0.8,1.4c0.4,0.2,0.8,0.4,1.2,0.5c0,0,0,0,0,0c0.1,0.2,0.2,0.3,0.3,0.5
				c0.3,0.3,0.5,0.7,0.8,1c0.2,0.7,0.3,1.5,0.5,2.2c-0.2,0.7-0.3,1.3-0.5,2c-2.5,2.7-5.9,3.8-10.2,0c-0.3-1-0.7-2-1-2.9
				c-0.2-0.3-0.3-0.5-0.5-0.8c-0.1-0.9-0.2-1.8-0.3-2.8c0-0.2,0-0.3,0.1-0.5c0-0.7,0-1.3-0.1-2c0,0,0,0,0,0c0.2-1.2,0.3-2.5,0.5-3.7
				c0.1-0.7,0.2-1.3,0.2-2c0.2-0.4,0.3-0.8,0.5-1.3c0.6-2,1.5-3.8,3.1-5.1c1.8-1.6,4-2.3,6.4-1.6c0.4,0.2,0.9,0.5,1.3,0.7
				c0.2,0.5,0.4,1,0.7,1.5c0.1,0.4,0.2,0.8,0.3,1.2c0.3,0.2,0.6,0.7,0.9,0.7c2.3-0.1,4-1.3,4.2-3.6c0.2-2.5-0.9-4.3-2.8-5.7
				c-2-0.6-4-1.2-6-1.8c-1.1,0.1-2.3,0.2-3.4,0.4c-2.4,0.3-4.2,1.7-6,3.1c-0.5,0.5-1,1.1-1.5,1.6c-0.5,0.7-1,1.3-1.5,2
				c-0.2,0.5-0.5,0.9-0.7,1.4c-0.8,2.1-1.5,4.1-2.3,6.2c-0.3,1.7-0.5,3.5-0.8,5.2c0,0,0,0,0,0c-0.1,0.7-0.1,1.5-0.2,2.2
				c0,0.2-0.1,0.3-0.1,0.5c0.1,0.7,0.2,1.3,0.2,2c0,0.3,0,0.6,0,1c0.1,0.5,0.2,1,0.3,1.5c0.4,3.1,3,15.1,15.2,13.8
				c12.2-1.3,9.7-13.5,9.7-13.5C193.1,102.5,193.1,102,193,101.6"/>
			<linearGradient id="SVGID_4_" gradientUnits="userSpaceOnUse" x1="206.9198" y1="113.2328" x2="206.9198" y2="88.5918">
				<stop  offset="0" style="stop-color:#CBFF48;stop-opacity:0"/>
				<stop  offset="1" style="stop-color:#CBFF48"/>
			</linearGradient>
			<path fill="url(#SVGID_4_)" d="M201.3,105.4c0.1-0.1,0.2-0.2,0.3-0.3c0.5-0.6,1.1-1.2,1.6-1.8c0.4-0.3,0.8-0.6,1.1-0.9
				c2.6-0.8,5.2-1.3,7.9-0.5c0.3,0.6,0.7,1.3,1,1.9c0,0,0,0,0.1,0c-0.1,0.2-0.1,0.2-0.1,0.2c0.4,4-3.2,10.9-3.2,10.9l7.7,1.8
				c0,0,1.8-7,1-14.2c0-0.2,0.1-0.3,0.1-0.5c0-0.4-0.1-0.8-0.1-1.2c0,0,0,0,0,0c-0.1-0.7-0.1-1.3-0.2-2c-0.2-1.2-0.3-2.3-0.5-3.5
				c-1-3.1-2-6.1-3-9.2c-0.2-0.4-0.5-0.8-0.7-1.2c-0.5-0.7-0.9-1.3-1.4-2c-0.4-0.5-0.8-1-1.2-1.5c-0.5-0.4-1.1-0.8-1.6-1.3
				c-0.6-0.3-1.2-0.7-1.7-1c-0.1,0-0.2,0-0.3,0l-0.1,0c0,0-0.1,0-0.1,0c-0.1,0-0.2,0-0.3,0c-0.3,0.1-0.6,0.2-0.9,0.3
				c-0.7,0.5-1.3,1-2,1.5c-0.5,0.6-1.1,1.2-1.6,1.7c-1.1,1.5-2.2,3-3.3,4.5c-0.9,2.1-1.9,4.1-2.8,6.2c-0.2,0.7-0.4,1.5-0.5,2.2
				c-0.2,1.2-0.5,2.3-0.7,3.5c0,0,0,0,0,0c-0.1,0.8-0.2,1.6-0.3,2.5c0,0.8-0.1,1.5-0.1,2.3c-0.1,0.2-0.1,0.3-0.2,0.5
				c0,0.4,0,0.8,0.1,1.2c0.2,3.2,0.9,11,0.9,11l7.2-1l-1-3.7c-0.2-0.7-0.4-1.4-0.5-2.1c-0.2-0.6-0.3-1.2-0.5-1.7c0-0.5,0-1,0-1.5
				C201.2,106.2,201.2,105.8,201.3,105.4 M212.2,95.1c-0.6,0.2-1.2,0.6-1.8,0.7c-2.2,0.4-4.5,0.6-6.7,0.9c-1.5,0.2-1.6,0.2-1.7-1.4
				c0.8-3,2.1-5.7,4.2-7.9c1.5-1.6,2.2-1.5,3.4,0.2C211.1,90,212.3,92.3,212.2,95.1z"/>
			<linearGradient id="SVGID_5_" gradientUnits="userSpaceOnUse" x1="233.3172" y1="113.2328" x2="233.3172" y2="88.5918">
				<stop  offset="0" style="stop-color:#CBFF48;stop-opacity:0"/>
				<stop  offset="1" style="stop-color:#CBFF48"/>
			</linearGradient>
			<path fill="url(#SVGID_5_)" d="M246.2,94.9c-0.2-4.8-0.5-9.6-0.7-14.4c-0.1-0.4-0.1-0.8-0.2-1.2c-0.1-0.3-0.1-0.6-0.2-0.9
				c-0.2-0.4-0.3-0.9-0.5-1.3c-0.5-0.3-1-0.6-1.4-0.8c-0.7,0-1.5,0-2.2,0c-0.6-0.1-1.2-0.1-1.8-0.2c-0.3,0.2-0.6,0.3-1,0.5
				c0,0.2,0,0.5,0,0.7c0,0.2,0,0.3,0.1,0.5c0.1,0.3,0.2,0.5,0.2,0.8c0.1,0.4,0.2,0.8,0.3,1.2c0.1,0.7,0.3,1.3,0.4,2
				c0.1,0.6,0.2,1.2,0.3,1.7c0.4,3.8,0.7,7.6,1.1,11.4c-0.1,0.7-0.1,1.3-0.2,2c-0.1,0-0.2,0-0.3,0.1c-0.3-0.4-0.6-0.9-0.8-1.3
				c0,0,0,0,0,0c-1-1.9-1.9-3.8-2.9-5.7c-0.2-0.4-0.4-0.8-0.6-1.2c-1.4-2.5-2.8-5-4.2-7.4c-0.4-0.6-0.8-1.2-1.2-1.8
				c-0.4-0.6-0.9-1.2-1.3-1.7c-0.3-0.3-0.6-0.6-1-1c-1.1-0.2-2.1-0.4-3.2-0.6c-0.7,0-1.3,0-2,0c-0.1,0-0.2,0-0.2,0
				c-0.2,0.4-0.5,0.8-0.7,1.3c-0.1,0.4-0.2,0.8-0.3,1.2c-0.1,0.5-0.2,1-0.3,1.5c-0.1,0.4-0.1,0.8-0.2,1.2c-0.1,0.6-0.1,1.2-0.2,1.7
				c-0.1,3.8-0.3,7.6-0.4,11.4c0,0,0,0,0,0c0,0.9,0,1.8,0,2.7c0,1.2,0,2.3,0,3.5c0,0,0,0,0,0c0,0.3-0.1,0.7-0.1,1
				c0,0.7,0.1,1.3,0.1,2c0,0,0,0,0,0c0,0.2-0.1,0.3-0.1,0.5c0.1,0.9,0.1,1.8,0.2,2.7c0,0.3,0,0.5,0,0.8c0.5,9.1,0.6,9.7,0.6,9.7
				l6.7-0.7l-0.8-6.1c0-0.5,0-1.1-0.1-1.6c0-0.4,0-0.8,0-1.2c-0.2-0.9-0.3-1.8-0.5-2.8c0-0.7,0-1.5,0-2.2c-0.1-0.1-0.1-0.2-0.2-0.3
				c0-0.6,0-1.2,0-1.7c0-0.5,0-1,0-1.5c-0.1-0.6-0.2-1.2-0.2-1.7c0-0.1,0.1-0.2,0.1-0.3c0-1-0.1-2-0.1-3c0.1-1.6,0.1-3.2,0.2-4.8
				c0-0.4,0.3-0.8,0.5-1.2c0.4,0.2,0.8,0.4,1.1,0.7c0.4,0.4,0.7,0.8,1,1.3c1.1,1.9,2.1,3.8,3.2,5.7c0.2,0,0.4-0.1,0.6-0.1
				c-0.2,0-0.4,0.1-0.6,0.1c0.2,0.7,0.5,1.3,0.7,2c0.1,0,0.1,0,0.2,0c0.3,0.8,0.7,1.6,1,2.5c0.1,0,0.1,0,0.2,0c0,0-0.1,0-0.2,0
				c0,0.1,0,0.2,0,0.2c0.2,0.6,0.4,1.2,0.6,1.7c0.2,0.5,0.5,1,0.7,1.5c1.7,4.7,3,12.2,3,12.2l7.3,0.1c0,0,0.8-8.4,0.7-14.5
				c0-0.6,0-1.2,0-1.7c-0.2,0-0.4,0-0.5,0c0.1,0,0.3,0,0.5,0c0-0.7,0-1.5,0-2.2h0C246.2,96.9,246.2,95.9,246.2,94.9"/>
			<linearGradient id="SVGID_6_" gradientUnits="userSpaceOnUse" x1="254.5811" y1="113.2328" x2="254.5811" y2="88.5918">
				<stop  offset="0" style="stop-color:#CBFF48;stop-opacity:0"/>
				<stop  offset="1" style="stop-color:#CBFF48"/>
			</linearGradient>
			<path fill="url(#SVGID_6_)" d="M257.4,102.1c0-0.3,0-0.6,0-1c-0.1-0.3-0.2-0.7-0.2-1c-0.1-1.1-0.1-2.2-0.2-3.2
				c0-0.8,0-1.7-0.1-2.5c0,0-0.1,0-0.1,0c0,0,0.1,0,0.1,0c0.1-2.5,0-5,0.3-7.4c0.4-3.4,1-6.8,1.5-10.3c0.1-0.3,0.1-0.7,0.2-1
				c0.1-0.3,0.2-0.7,0.2-1c0.1-0.5,0.2-1,0.2-1.4c-0.1-0.3-0.1-0.5-0.2-0.8c-1.4-0.1-2.7-0.2-4.1-0.3c-0.4,0-0.9,0-1.3,0
				c-0.7,0.2-1.3,0.4-2,0.6c-0.2,0.5-0.4,1-0.6,1.5c-0.1,0.5-0.2,1-0.3,1.5c-0.1,0.5-0.2,1-0.3,1.5c0,0.4-0.1,0.8-0.1,1.3
				c-0.1,1.8-0.3,3.5-0.3,5.3c-0.1,3.6-0.2,7.1-0.3,10.7c0,0,0,0,0,0c0,0.8,0,1.7,0,2.5c0,0,0,0,0,0c0,1.1,0,2.2,0,3.2h0
				c0,0.7-0.1,1.3-0.1,2c0.1,0,0.1,0,0.2,0c0,0.9,0,1.8-0.1,2.7c0,0.3,0,0.5,0.1,0.8c0,0.2,0,0.5,0,0.7c0,0.7,0,1.3,0,2
				c0,0.1,0,0.2,0,0.2c0.1,0.4,0.2,0.8,0.2,1.2c0,0.2,0,0.3,0,0.5c0.4,6.3,1,7.7,1,7.7l8-1.4c0,0-0.4-2.8-0.8-5.6c0-0.3,0-0.7,0-1
				c-0.2-0.8-0.3-1.7-0.5-2.5c-0.1-0.6-0.1-1.2-0.2-1.8c0-0.6,0-1.1-0.1-1.7c-0.1-0.5-0.1-1-0.2-1.5
				C257.5,102.5,257.4,102.3,257.4,102.1"/>
			<linearGradient id="SVGID_7_" gradientUnits="userSpaceOnUse" x1="275.235" y1="113.2328" x2="275.235" y2="88.5918">
				<stop  offset="0" style="stop-color:#CBFF48;stop-opacity:0"/>
				<stop  offset="1" style="stop-color:#CBFF48"/>
			</linearGradient>
			<path fill="url(#SVGID_7_)" d="M269,96.1c-0.1-0.7-0.2-1.3-0.3-2c-0.1-1.2-0.2-2.5-0.3-3.7h0c0.3-1.9,0.7-3.8,1-5.7
				c0.8-4.7,4.3-8.4,8.6-9.1c1.6-0.2,3,0.1,4.3,0.9c0.3,0.3,0.5,0.6,0.8,0.9c0.1,0.2,0.2,0.5,0.3,0.7c0.1,0.4,0.2,0.7,0.2,1.1
				c0,0.1,0,0.1,0.1,0.2c0.1,0.3,0.1,0.5,0.2,0.8c0.1,0.1,0.2,0.3,0.3,0.4c1-0.1,2.1,0,3-0.3c1.9-0.6,2.5-2.2,2.9-3.9
				c-0.3-1.4-0.6-2.8-0.9-4.2c-0.9-0.9-1.9-1.8-2.8-2.7c-6.9-3.3-13.2-2.3-18.9,2.8c-0.7,0.8-1.3,1.7-2,2.5c-0.2,0.3-0.5,0.7-0.7,1
				c-0.2,0.5-0.5,0.9-0.7,1.4c-2.1,4.1-3.4,8.3-3.6,12.9c0,1.8,0,3.7,0,5.5c0.1,1,0.2,2,0.3,3c0.1,0.5,0.2,1,0.3,1.5
				c0.1,0.3,0.1,0.7,0.2,1c1.6,8.5,8.9,16.8,18.2,15.2c9.3-1.6,9.7-7.6,9.7-7.6c0.3-1.5,0.5-2.8,0.7-4.1c0-1.3,0-2.7,0-4
				c0-0.4,0-0.8,0-1.2c-0.1-0.3-0.1-0.7-0.3-0.9c-0.2-0.2-0.6-0.3-0.9-0.4c-0.2,0.6-0.3,1.2-0.5,1.7c-0.2,0.5-0.5,1-0.7,1.5
				c-0.3,0.5-0.7,1-1,1.5c0,0.1,0,0.2,0,0.2c-0.2,0.1-0.3,0.2-0.5,0.3c-0.3,0.3-0.7,0.5-1,0.8c-0.3,0.3-0.7,0.7-1,1
				c0,0-4.4,2.7-9.2-0.4c0.1,0,0.2,0.1,0.3,0.1c-0.1-0.2-0.2-0.3-0.3-0.5c-0.4-0.3-0.9-0.6-1.3-1c-0.3-0.3-0.6-0.5-0.9-0.8
				c-0.2-0.2-0.3-0.5-0.5-0.7c-0.1,0-0.2,0-0.2,0c-0.4-0.1-0.4-0.1,0,0c-0.3-0.5-0.5-1-0.8-1.5c-0.2-0.3-0.5-0.7-0.7-1
				c0-0.1,0-0.2-0.1-0.3C269.7,98.1,269.4,97.1,269,96.1"/>
		</g>
		<g>
			<path fill="#CBFF48" d="M264.7,149.9c0,0.4,0,0.8,0,1.2c-0.2,0.6-0.3,1.2-0.5,1.7c-0.1,0.2-0.1,0.3-0.2,0.5
				c-0.1,0.1-0.1,0.2-0.2,0.3c0,0.2,0,0.3-0.1,0.5c-0.2,0.3-0.5,0.7-0.7,1c-0.8,0.8-1.7,1.7-2.5,2.5c-3.7,2-7.4,1.8-11-0.3
				c-0.2-0.1-0.3-0.2-0.5-0.3c-0.1-0.1-0.2-0.1-0.2-0.2c-2.1-2.1-3.5-4.6-3.8-7.6c-0.3-2.6-0.6-5.3-0.7-7.9
				c-0.1-1.9,0.2-3.8,0.4-5.7c0.5-4,1.3-8,3.3-11.6c2.9-5.2,9-6.9,13.8-3.8c0.4,0.3,0.8,0.7,1.3,1c0.4,0.5,0.8,1,1.2,1.5
				c0.2,0.4,0.5,0.8,0.7,1.3c0.2,0.7,0.4,1.3,0.6,2c0.1,0.6,0.2,1.2,0.2,1.7c-0.1,0.9-0.6,1.4-1.5,1.5c-0.6,0-1.3,0-1.9,0
				c-0.3-0.3-0.7-0.7-1-1c-0.1-0.4-0.1-0.8-0.2-1.2c-0.3-0.7-0.5-1.3-0.8-2c-0.3-0.3-0.7-0.7-1-1c-2.6-1.4-5.1-1-6.8,1.3
				c-0.9,1.3-1.4,2.8-2,4.2c-0.4,1.8-0.8,3.7-1.2,5.5c-0.2,1.9-0.3,3.8-0.5,5.7c0.1,2.2,0.2,4.3,0.2,6.5c0.3,1.2,0.4,2.5,0.9,3.7
				c1.5,3.7,4.3,4.7,7.8,2.8c0.4-0.4,0.8-0.8,1.2-1.3c0.3-0.6,0.5-1.2,0.8-1.8c0.1-0.3,0.1-0.6,0.2-1c0.2-0.3,0.5-0.7,0.7-1
				c0.7,0,1.5,0,2.2,0C263.7,149.1,264.2,149.5,264.7,149.9z"/>
			<path fill="#CBFF48" d="M193.8,153.4c-1.8,0.6-3.1,0.3-4-0.8c0-0.6,0-1.2,0-1.7c0.1-0.7,0.2-1.5,0.3-2.2c0.1-1,0.2-2,0.2-3
				c0.2-2.9,0.4-5.8,0.6-8.7c0.1-0.2,0.1-0.4,0.2-0.6c0.4-5.6,0.7-11.2,1.1-16.9c0.1-1.1,0.2-2.2,0.2-3.2c0.3-1.2,1.1-1.7,2.3-1.5
				c0.9,0.1,1.7,0.2,2.6,0.3c0.3,0.5,0.6,1,0.9,1.5c0.1,0.5,0.3,1,0.4,1.5c0.2,0.8,0.4,1.5,0.7,2.3c0.2,0.6,0.3,1.1,0.5,1.7
				c0.7,2.6,1.4,5.1,2.1,7.7c1.1,3.9,2.2,7.8,3.3,11.7c0.1,0,0.1,0,0.2,0c0.3-4.5,0.6-9.1,0.9-13.6c0.1-1.1,0.2-2.2,0.2-3.2
				c0-0.7,0-1.5,0-2.2c0.1-0.7,0.2-1.3,0.3-2c0-0.5,0-1,0.1-1.5c0.1-0.4,0.1-0.8,0.2-1.2c0.1-0.4,0.2-0.8,0.3-1.2
				c0.8-0.2,1.6-0.3,2.5-0.5c0.6,0.3,1.1,0.7,1.7,1c0,0.8,0,1.6,0,2.5c-0.1,1.2-0.2,2.3-0.3,3.5c-0.1,1.5-0.3,3-0.4,4.5
				c-0.1,1.8-0.2,3.6-0.3,5.5c-0.4,5.1-0.8,10.1-1.2,15.2c0,0.8-0.1,1.5-0.1,2.3c-0.1,0.5-0.1,1-0.2,1.5c0,0.6-0.1,1.2-0.1,1.7
				c-0.1,0.4-0.2,0.8-0.2,1.2c-1.1,0.9-2.4,0.3-3.6,0.5c-0.3-0.5-0.7-1-1-1.5c-0.1-0.4-0.2-0.8-0.3-1.2c-0.1-0.3-0.2-0.7-0.3-1
				c-0.1-0.4-0.3-0.8-0.4-1.3c-0.1-0.3-0.2-0.7-0.3-1c-0.1-0.5-0.3-1-0.4-1.5c-0.1-0.5-0.3-1-0.4-1.5c-1.8-6.6-3.7-13.1-5.5-19.7
				c-0.1,0-0.2,0-0.3,0c-0.3,4.3-0.6,8.6-0.8,13c-0.1,1-0.2,2-0.2,3c-0.1,0.8-0.2,1.7-0.3,2.5c0,0.5,0,1,0,1.5
				c0,0.6-0.1,1.2-0.1,1.7c-0.1,0.5-0.1,1-0.2,1.5c0,0.6,0,1.2-0.1,1.7c-0.1,0.5-0.1,1-0.2,1.5C194.1,153.1,193.9,153.2,193.8,153.4
				z"/>
			<path fill="#CBFF48" d="M157.7,151.2c-0.3-0.3-0.5-0.7-0.8-1c0-0.3,0-0.7,0-1c0.2-0.3,0.3-0.7,0.5-1c0.2-0.5,0.3-1,0.5-1.5
				c0.1-0.3,0.2-0.6,0.3-0.9c0.2-0.4,0.3-0.9,0.5-1.3c0.2-0.4,0.3-0.8,0.5-1.3c0.2-0.4,0.3-0.8,0.5-1.2c0.2-0.6,0.5-1.2,0.7-1.8
				c0.3-0.8,0.7-1.7,1-2.5c2.3-6.3,4.6-12.6,7-18.9c0.4-1,0.7-2,1.1-3c0.3-0.8,0.5-1.6,1-2.2c0.3-0.5,1-1,1.5-0.9
				c0.5,0,1,0.7,1.3,1.2c0.3,0.7,0.4,1.5,0.6,2.2c1.1,5.5,2.3,10.9,3.4,16.4c0.8,3.9,1.7,7.8,2.6,11.7c0.2,0.8,0.3,1.7,0.5,2.5
				c0.1,0.6,0.3,1.2,0.4,1.8c0.2,0.7,0.3,1.3,0.5,2c0,0.5,0,1,0,1.4c-1,1.3-2.7,1.4-4.5,0.3c-0.1-0.3-0.3-0.7-0.4-1
				c-0.1-0.5-0.2-1-0.3-1.5c-0.1-0.3-0.1-0.7-0.2-1c-0.1-0.5-0.2-1-0.3-1.5c-0.1-0.5-0.2-1-0.3-1.5c-0.1-0.7-0.2-1.3-0.3-2
				c-0.1-0.5-0.2-1-0.3-1.5c-0.1-1.1-1-0.9-1.7-1c-2.3-0.2-4.6-0.3-6.9-0.6c-1-0.1-1.4,0.1-1.5,1.1c-0.1,0.4-0.3,0.8-0.4,1.2
				c-0.2,0.6-0.4,1.2-0.6,1.8c-0.2,0.6-0.4,1.2-0.6,1.7c-0.2,0.4-0.3,0.8-0.5,1.2c-0.2,0.4-0.3,0.8-0.5,1.2c-0.1,0.3-0.2,0.6-0.3,1
				c-0.2,0.3-0.3,0.7-0.5,1c-0.7,0.2-1.5,0.3-2.2,0.5C158.7,151.3,158.2,151.2,157.7,151.2z M171.1,124c-0.1,0-0.2,0-0.2,0
				c-1.5,4-2.9,8.1-4.4,12.3c2.5,0.2,4.9,0.3,7.3,0.5C172.9,132.4,172,128.2,171.1,124z"/>
			<path fill="#CBFF48" d="M135.5,149.7c-0.3-0.3-0.5-0.7-0.8-1c0-0.2,0-0.3,0-0.5c0-0.3,0-0.7,0-1c0-0.7,0-1.3,0-2
				c0.1-0.2,0.1-0.3,0.2-0.5c0-0.3,0-0.7,0-1c0-0.3,0-0.7,0.1-1c0.1-0.5,0.1-1,0.2-1.5c0.1-1,0.2-2,0.2-3c0.3-4.5,0.7-9,1-13.4
				c0-0.2,0-0.3,0-0.5c0-0.7,0-1.5,0.1-2.2c0.1-0.4,0.1-0.8,0.2-1.3c0.1-1.6,0.2-3.2,0.3-4.7c0.1-1,0.1-2.1,0.3-3.1
				c0.1-0.7,0.5-1.4,0.7-2.1c1.2,0,2.3,0,3.5,0c0.3,0.1,0.6,0.2,0.8,0.2c2.9,0.1,5.7,0.3,8.4,1.4c1,0.9,1.9,1.9,2.9,2.8
				c1.4,2.6,2,5.4,1.8,8.4c-0.3,5-1.9,9.1-7,11.1c-0.5,0.1-1,0.2-1.5,0.4c-0.6,0.1-1.2,0.1-1.7,0.2c-1.7-0.1-3.4-0.2-5.3-0.3
				c0,1.4,0,2.7,0,4c-0.1,0.7-0.1,1.3-0.2,2c-0.1,0.4-0.2,0.8-0.2,1.2c0,0.4,0,0.8,0,1.2c0,0.3,0,0.7,0,1c-0.1,0.3-0.2,0.7-0.2,1
				c0,0.5,0,1,0,1.5c0,0.5,0,1,0,1.5c-0.1,0.2-0.2,0.5-0.3,0.7C137.9,150,136.7,149.6,135.5,149.7z M140.7,127.5
				c-0.1,1-0.2,2-0.3,3.2c2.3,0,4.5,0.5,6.5-0.4c0.6-0.4,1.3-0.6,1.8-1.1c2-1.9,2.2-4.5,2.1-7c-0.1-2-0.4-4-2.1-5.4
				c-2.1-1.8-4.7-0.9-7.3-1.5c0,1.1,0,1.9,0,2.8C141.2,121.2,141,124.4,140.7,127.5z"/>
			<path fill="#CBFF48" d="M220.9,155.9c-0.4-0.2-0.8-0.4-1.2-0.5c-0.1-0.7-0.2-1.3-0.2-2c0.3-0.6,0.5-1.2,0.8-1.9
				c0.5,0,1,0.1,1.5,0.1c0.3,0,0.7,0,1,0c0.6,0,1.1,0,1.8,0c0.2-2.6,0.3-5,0.5-7.4c0.1-1.2,0.2-2.3,0.3-3.5c0.2-2,0.3-4,0.5-6
				c0.1-1.7,0.2-3.5,0.3-5.2c0.2-2.6,0.5-5.2,0.7-8c-0.9,0-1.6,0-2.3,0c-0.3-0.1-0.7-0.1-1-0.2c-0.3-0.2-0.7-0.4-1-0.6
				c-0.6-2-0.3-3.1,1-3.8c3.6,0.2,7.1,0.5,10.7,0.7c1.4,0.2,1.8,0.6,1.7,2c0,0.6-0.2,1.2-0.3,1.8c-0.2,0.2-0.3,0.3-0.5,0.5
				c-0.2,0-0.3,0.1-0.5,0.1c-0.2,0-0.3,0-0.5,0c-0.3,0-0.6,0-1,0c-0.6-0.1-1.3-0.2-2.1-0.3c-0.2,2.8-0.4,5.5-0.5,8.1
				c0,0.9-0.1,1.8-0.1,2.8c-0.2,2.9-0.5,5.8-0.7,8.7c-0.1,0.9-0.1,1.8-0.2,2.7c-0.2,2.6-0.4,5.2-0.6,7.9c0.9,0,1.6,0,2.3,0
				c0.2,0,0.3,0.1,0.5,0.1c0.3,0,0.5,0.1,0.8,0.1c0.1,0,0.2,0,0.3,0c0.2,0.1,0.3,0.2,0.5,0.3c0.1,0.3,0.2,0.6,0.3,1
				c0,0.6,0,1.2,0,1.7c-0.3,0.4-0.7,0.8-1,1.2c-0.3,0-0.7,0-1,0C227.9,156.4,224.4,156.2,220.9,155.9z"/>
		</g>
	</g>
</g>
<g id="White_copy">
</g>
</svg>
