<?xml version="1.0" encoding="utf-8"?>
<!-- Generator: Adobe Illustrator 15.0.2, SVG Export Plug-In . SVG Version: 6.00 Build 0)  -->
<!DOCTYPE svg PUBLIC "-//W3C//DTD SVG 1.1//EN" "http://www.w3.org/Graphics/SVG/1.1/DTD/svg11.dtd">
<svg version="1.1" id="White_copy" xmlns="http://www.w3.org/2000/svg" xmlns:xlink="http://www.w3.org/1999/xlink" x="0px" y="0px"
	 width="395px" height="227px" viewBox="-195.302 -73.563 395 227" enable-background="new -195.302 -73.563 395 227"
	 xml:space="preserve">
<g id="Bizmedia_1_">
	<path fill="#CBFF48" d="M-55.5,5.779h15.001c0,0,0,16.311,0,24.464c3.95-2.114,7.75-3.934,13.385-3.922
		c12.981,0.027,23.305,9.223,24.234,21.461c1.114,14.679-9.776,26.313-22.387,26.313c-9.42,0-14.157-2.612-17.54-5.541l-2.54,4.116
		H-55.5V61.634l3.694,0.462V17.549l-3.694-0.693V5.779z M-14.193,50.304c0-7.193-5.831-13.027-13.028-13.027
		c-7.196,0-13.027,5.834-13.027,13.027c0,7.194,5.831,13.028,13.027,13.028C-20.024,63.332-14.193,57.498-14.193,50.304z"/>
	<path fill="#CBFF48" d="M13.508,27.935l0.104,33.724h3.009v11.013H-1.265c0,0,0-7.324,0-11.013c1.077,0,3.232,0,3.232,0V39.245
		l-3.232-0.23v-11.08H13.508z"/>
	<polygon fill="#CBFF48" points="59.896,27.935 59.896,38.553 37.743,61.634 48.817,61.634 49.048,57.706 59.896,57.706 
		59.896,72.671 20.662,72.671 20.662,63.478 43.279,39.015 31.969,39.015 31.738,42.938 20.662,42.938 20.662,27.935 	"/>
</g>
</svg>
