<?xml version="1.0" encoding="utf-8"?>
<!-- Generator: Adobe Illustrator 15.0.2, SVG Export Plug-In . SVG Version: 6.00 Build 0)  -->
<!DOCTYPE svg PUBLIC "-//W3C//DTD SVG 1.1//EN" "http://www.w3.org/Graphics/SVG/1.1/DTD/svg11.dtd">
<svg version="1.1" id="White_copy" xmlns="http://www.w3.org/2000/svg" xmlns:xlink="http://www.w3.org/1999/xlink" x="0px" y="0px"
	 width="395px" height="227px" viewBox="-195.302 -73.563 395 227" enable-background="new -195.302 -73.563 395 227"
	 xml:space="preserve">
<g id="Notch_1_">
	<path fill="#CBFF48" d="M-93.269,21.849h2.001l21.099,19.661V21.849h7.203v36.178h-1.836l-21.265-19.751v19.751h-7.203V21.849z"/>
	<path fill="#CBFF48" d="M-33.042,20.938c5.119,0,9.52,1.853,13.203,5.559c3.684,3.705,5.525,8.223,5.525,13.551
		c0,5.279-1.817,9.748-5.451,13.404c-3.635,3.656-8.044,5.484-13.229,5.484c-5.431,0-9.942-1.877-13.536-5.632
		c-3.593-3.755-5.39-8.215-5.39-13.38c0-3.459,0.837-6.641,2.51-9.543c1.673-2.901,3.975-5.201,6.903-6.898
		C-39.577,21.787-36.423,20.938-33.042,20.938z M-33.113,29.448c-2.867,0-5.276,0.996-7.229,2.989
		c-1.953,1.993-2.929,4.526-2.929,7.601c0,3.425,1.229,6.133,3.688,8.126c1.911,1.558,4.103,2.337,6.575,2.337
		c2.796,0,5.177-1.011,7.144-3.031c1.967-2.021,2.951-4.512,2.951-7.475c0-2.947-0.991-5.441-2.972-7.483
		C-27.865,30.469-30.274,29.448-33.113,29.448z"/>
	<path fill="#CBFF48" d="M-6.048,21.849h23.61v7.549H9.779v28.629H1.531V29.397h-7.579V21.849L-6.048,21.849z"/>
	<path fill="#CBFF48" d="M51.636,32.226c-2.347-1.885-4.917-2.826-7.71-2.826c-2.955,0-5.443,1.01-7.466,3.029
		c-2.023,2.02-3.036,4.51-3.036,7.47c0,2.062,0.449,3.893,1.345,5.492s2.163,2.854,3.801,3.767c1.639,0.911,3.459,1.367,5.461,1.367
		c1.708,0,3.27-0.319,4.684-0.957c0.938-0.424,1.939-1.078,3.001-1.962l5.551,5.774c-1.874,1.589-3.669,2.747-5.384,3.475
		c-2.301,0.976-4.926,1.464-7.876,1.464c-5.44,0-9.895-1.725-13.36-5.175s-5.198-7.872-5.198-13.265c0-3.49,0.788-6.592,2.367-9.304
		c1.578-2.712,3.839-4.894,6.781-6.543c2.941-1.649,6.111-2.475,9.505-2.475c2.888,0,5.667,0.609,8.34,1.829
		c1.715,0.782,3.278,1.776,4.689,2.982L51.636,32.226z"/>
	<path fill="#CBFF48" d="M67.459,21.849h8.108V36.64h14.019V21.849h8.079v36.178h-8.079V43.305H75.567v14.722h-8.108V21.849z"/>
</g>
</svg>
