<?xml version="1.0" encoding="utf-8"?>
<!-- Generator: Adobe Illustrator 15.0.2, SVG Export Plug-In . SVG Version: 6.00 Build 0)  -->
<!DOCTYPE svg PUBLIC "-//W3C//DTD SVG 1.1//EN" "http://www.w3.org/Graphics/SVG/1.1/DTD/svg11.dtd">
<svg version="1.1" id="White_copy" xmlns="http://www.w3.org/2000/svg" xmlns:xlink="http://www.w3.org/1999/xlink" x="0px" y="0px"
	 width="395px" height="227px" viewBox="-195.302 -73.563 395 227" enable-background="new -195.302 -73.563 395 227"
	 xml:space="preserve">
<g id="YTV_1_">
	<g>
		<path fill="#CBFF48" d="M-31.824,64.672c-4.532-7.166-7.167-15.646-7.167-24.734c0-1.722,0.102-3.421,0.285-5.095
			c-1.235-1.192-2.475-2.389-3.691-3.561c-0.487,2.813-0.756,5.704-0.756,8.655c0,10.99,3.535,21.165,9.51,29.471
			C-33.04,67.838-32.43,66.253-31.824,64.672z"/>
		<path fill="#CBFF48" d="M-30.869,13.737C-22.496,1.532-8.45-6.494,7.44-6.494c10.761,0,20.668,3.688,28.552,9.857
			c1.864-0.21,3.769-0.426,5.675-0.642C32.653-5.578,20.63-10.655,7.44-10.655c-17.354,0-32.693,8.786-41.811,22.144
			C-33.164,12.017-31.993,12.762-30.869,13.737z"/>
		<path fill="#CBFF48" d="M50.217,21.887c0.358,0.845,0.683,1.704,0.991,2.573l1.096,3.535c1.018,3.813,1.566,7.813,1.566,11.942
			c0,25.603-20.829,46.432-46.43,46.432c-8.032,0-15.593-2.051-22.189-5.654c-0.908,0.981-2.095,1.96-3.57,2.744
			c7.551,4.485,16.356,7.071,25.759,7.071c27.897,0,50.59-22.696,50.59-50.593c0-7.111-1.479-13.881-4.14-20.026
			C52.883,20.816,51.677,21.438,50.217,21.887z"/>
	</g>
	<path fill="#CBFF48" d="M12.416,1.289L0.648,2.609c-2.036,0.21-5.431,0.56-6.967,5.013c-0.792,2.397-9.964,25.224-9.964,25.224
		c-0.497,0.06-0.583,0.013-0.803-0.222c-0.777-0.827-14.032-14.278-15.247-15.508c-2.94-2.98-5.476-3.274-7.472-3.044l-13.828,1.56
		c0,0,26.059,25.089,32.225,31.162c-1.364,4.248-13.657,35.9-13.657,35.9c0.006,0,7.462-0.709,11.305-1.137
		c5.585-0.635,7.67-4.755,7.89-5.313C-15.711,75.854,12.416,1.289,12.416,1.289z M17.964,8.883
		c-2.036,0.236-5.458,3.063-6.555,5.396c-0.989,2.124-3.967,9.095-3.967,9.095s7.792-0.759,10.149-1.019
		c-1.671,4.045-4.011,10.665-5.248,14.307c-0.346,1.003-0.796,2.992,0.151,5.083c0.632,1.866,6.714,9.103,6.714,9.103
		s10.771-24.552,13.614-30.19c1.965-0.213,10.653-1.116,11.873-1.26c5.094-0.59,6.796-1.348,8.01-3.527
		c0.985-1.765,4.604-11.425,4.604-11.425S17.976,8.89,17.964,8.883z M37.151,29.473c-3.325,0.374-4.482,1.474-5.356,3.229
		c-1.682,3.182-11.197,26.517-12.775,30.434c-0.743,0.107-0.963,0.1-1.765-1.193L1.519,39.244c-0.003,0-3.567,8.721-3.986,9.835
		c-0.707,1.798-1.194,3.668,0.743,6.532c1.215,1.787,8.57,11.55,11.067,14.754c2.791,3.403,4.343,3.449,7.083,3.226
		c0,0,8.694-0.952,8.79-0.973c3.402-0.521,4.916-1.14,6.816-4.776c1.237-2.304,16.423-39.594,16.423-39.594L37.151,29.473z"/>
</g>
</svg>
