<?xml version="1.0" encoding="utf-8"?>
<!-- Generator: Adobe Illustrator 18.0.0, SVG Export Plug-In . SVG Version: 6.00 Build 0)  -->
<!DOCTYPE svg PUBLIC "-//W3C//DTD SVG 1.0//EN" "http://www.w3.org/TR/2001/REC-SVG-20010904/DTD/svg10.dtd">
<svg version="1.0" id="White_copy" xmlns="http://www.w3.org/2000/svg" xmlns:xlink="http://www.w3.org/1999/xlink" x="0px" y="0px"
	 viewBox="0 0 395 227" enable-background="new 0 0 395 227" xml:space="preserve">
<path id="path4135-7" fill="#CBFF48" d="M79,85.7v29.6h6.7c0,0,0-10.6,0-12c1.3,0,11.4,0,11.4,0v-6.4c0,0-10.1,0-11.4,0
	c0-1,0-3.8,0-4.9c1.3,0,16.4,0,16.4,0v-6.4L79,85.7"/>
<path id="path4137-4" fill="#CBFF48" d="M203.4,105.8c-1.7,2.3-4.3,3.6-7.2,3.6c-4.8,0-8.9-4.1-8.9-9c0-4.9,4.1-9,8.9-9
	c2.9,0,5.4,1.3,7.1,3.8l0.4,0.6l5.5-4.1l-0.4-0.6c-3.1-3.9-7.6-6-12.5-6c-8.8,0-15.8,6.7-15.8,15.4c0,8.6,6.9,15.4,15.8,15.4
	c5,0,9.5-2.2,12.5-6l0.4-0.6l-5.4-3.9L203.4,105.8"/>
<path id="path4139-0" fill="#CBFF48" d="M255.1,85.7v16.3c0,4.5-2.6,7.5-6.6,7.5c-3.8,0-6.5-3.1-6.5-7.5V85.7h-6.7V103
	c0,7.3,5.7,12.7,13.2,12.7c7.6,0,13.2-5.5,13.2-12.7V85.7H255.1"/>
<path id="path4141-9" fill="#CBFF48" d="M302.5,96.8c-4-0.5-6.3-0.9-6.3-2.8c0-1.5,1.6-3.1,5.2-3.1c2.8,0,4.9,1,7.1,3.1l0.5,0.4
	l4.9-4.4l-0.5-0.5c-2.9-3-6.9-4.5-11.7-4.5c-7,0-12.4,4-12.4,9.2c0,7.2,6.5,8.1,11.7,8.8c4,0.5,6.4,1,6.4,2.9c0,2.5-3.1,3.5-6,3.5
	c-2.8,0-5.6-1.3-7.7-3.6l-0.5-0.5l-5,4.5l0.5,0.5c3.3,3.5,7.9,5.4,12.5,5.4c6.3,0,13.1-3.5,13.1-10.1
	C314.3,98.3,307.5,97.4,302.5,96.8"/>
<path id="path4143-4" fill="#CBFF48" d="M79.2,131.4v14.1H82c0,0,0-5.4,0-5.8c0.4,0,5.6,0,5.6,0v-2.8c0,0-5.2,0-5.6,0
	c0-0.3,0-2.4,0-2.7c0.4,0,8,0,8,0v-2.8L79.2,131.4"/>
<path id="path4145-8" fill="#CBFF48" d="M109.5,131.4v14.1h10.9v-2.8c0,0-7.6,0-8,0c0-0.3,0-2.8,0-3.1c0.4,0,5.6,0,5.6,0v-2.8
	c0,0-5.2,0-5.6,0c0-0.3,0-2.4,0-2.7c0.4,0,8,0,8,0v-2.8L109.5,131.4"/>
<path id="path4147-8" fill="#CBFF48" d="M173.3,131.4v2.8c0,0,3.6,0,4,0c0,0.4,0,11.3,0,11.3h2.9c0,0,0-10.9,0-11.3c0.3,0,4,0,4,0
	v-2.8H173.3"/>
<path id="path4149-2" fill="#CBFF48" d="M214.6,131.4v7.7c0,2.3-1.3,3.8-3.4,3.8c-2,0-3.4-1.6-3.4-3.8v-7.7h-2.9v8.3
	c0,3.5,2.7,6.1,6.3,6.1s6.3-2.6,6.3-6.1v-8.3H214.6"/>
<path id="path4151-4" fill="#CBFF48" d="M249.8,136.4c0-2.9-2-4.9-5.1-4.9H238v14.1h2.9c0,0,0-4,0-4.3c0.3,0,2.6,0,2.8,0
	c0.1,0.2,2.9,4.3,2.9,4.3h3.6c0,0-3.3-4.6-3.5-5C248.6,139.9,249.8,138.2,249.8,136.4L249.8,136.4z M240.9,134.3c0.3,0,3.6,0,3.6,0
	c1.8,0,2.4,1.1,2.4,2.1s-0.6,2.1-2.4,2.1c0,0-3.3,0-3.6,0C240.9,138.1,240.9,134.6,240.9,134.3"/>
<path id="path4153-5" fill="#CBFF48" d="M271.2,131.4v14.1h10.9v-2.8c0,0-7.6,0-8,0c0-0.3,0-2.8,0-3.1c0.4,0,5.6,0,5.6,0v-2.8
	c0,0-5.2,0-5.6,0c0-0.3,0-2.4,0-2.7c0.4,0,8,0,8,0v-2.8L271.2,131.4"/>
<path id="path4155-5" fill="#CBFF48" d="M308.9,136.9c-1.7-0.2-3.3-0.4-3.3-1.5c0-0.8,0.8-1.7,2.7-1.7c1.4,0,2.4,0.4,3.6,1.6
	l0.1,0.1l2.2-1.9l-0.1-0.1c-1.4-1.4-3.3-2.2-5.6-2.2c-3.3,0-5.9,1.9-5.9,4.3c0,3.4,3.1,3.8,5.6,4.1c1.7,0.3,3.3,0.4,3.3,1.6
	s-1.2,1.9-3.1,1.9c-1.4,0-2.8-0.6-3.9-1.8l-0.1-0.1l-2.2,2l0.1,0.1c1.5,1.7,3.8,2.6,6,2.6c3,0,6.2-1.7,6.2-4.8
	C314.5,137.6,311.4,137.2,308.9,136.9"/>
<path id="path4157-1" fill="#CBFF48" d="M147.9,130.9l-7,14.8h3.1c0,0,1-2.1,1-2.4c0.3,0,5.4,0,5.6,0c0.1,0.2,1,2.4,1,2.4h3.1
	l-6.9-15.2L147.9,130.9z M148,136.8c0.3,0.6,1.4,3.3,1.6,3.7c-0.4,0-2.8,0-3.3,0C146.5,140,147.7,137.3,148,136.8"/>
<path fill="#CBFF48" d="M141.8,84.7c-8.6,0-15.6,7-15.6,15.6s7,15.6,15.6,15.6s15.6-7,15.6-15.6S150.4,84.7,141.8,84.7z
	 M141.8,109.2c-4.9,0-8.8-4-8.8-8.8c0-4.9,4-8.8,8.8-8.8c4.9,0,8.8,4,8.8,8.8C150.7,105.2,146.7,109.2,141.8,109.2z"/>
</svg>
