<?xml version="1.0" encoding="utf-8"?>
<!-- Generator: Adobe Illustrator 15.0.2, SVG Export Plug-In . SVG Version: 6.00 Build 0)  -->
<!DOCTYPE svg PUBLIC "-//W3C//DTD SVG 1.1//EN" "http://www.w3.org/Graphics/SVG/1.1/DTD/svg11.dtd">
<svg version="1.1" id="Layer_1" xmlns="http://www.w3.org/2000/svg" xmlns:xlink="http://www.w3.org/1999/xlink" x="0px" y="0px"
	 width="41px" height="159px" viewBox="0 0 41 159" enable-background="new 0 0 41 159" xml:space="preserve">
<g id="Layer_2">
</g>
<g id="Layer_1_1_">
	<path fill="#CBFF48" d="M28.438,158.438c-2.23,1.251-4.496-0.053-4.496-0.053L0.957,145.114l12.607-5.797l24.106,13.668
		C37.422,153.21,28.438,158.438,28.438,158.438z"/>
	<path fill="#CBFF48" d="M39.38,96.51c0,0-0.005,0.479-0.203,1.136L15.295,83.842V70.064c0,0,18.864,10.872,21.479,12.37
		c2.605,1.488,2.605,5.135,2.605,5.135L39.38,96.51L39.38,96.51z"/>
	<path fill="#CBFF48" d="M15.295,0.054l11.182,6.422c2.729,1.562,2.729,4.47,2.729,4.47v10.892l-13.911-7.909V0.054z"/>
</g>
</svg>
